<svg xmlns="http://www.w3.org/2000/svg" xmlns:xlink="http://www.w3.org/1999/xlink" version="1.1" width="242px" height="219px" style="shape-rendering:geometricPrecision; text-rendering:geometricPrecision; image-rendering:optimizeQuality; fill-rule:evenodd; clip-rule:evenodd">
<g><path style="opacity:0.557" fill="#000000" d="M 165.5,3.5 C 165.158,4.33825 164.492,4.67158 163.5,4.5C 164.006,2.89461 164.673,2.56127 165.5,3.5 Z"/></g>
<g><path style="opacity:1" fill="#000000" d="M 184.5,3.5 C 184.427,5.02694 185.094,6.02694 186.5,6.5C 189.167,11.1667 191.833,15.8333 194.5,20.5C 197.627,26.3983 200.294,32.0649 202.5,37.5C 202.427,39.0269 203.094,40.0269 204.5,40.5C 204.5,41.1667 204.833,41.5 205.5,41.5C 208.09,46.3489 210.424,51.3489 212.5,56.5C 212.427,58.0269 213.094,59.0269 214.5,59.5C 219.085,67.6684 223.418,76.0017 227.5,84.5C 227.427,86.0269 228.094,87.0269 229.5,87.5C 229.932,88.7095 230.599,89.7095 231.5,90.5C 231.328,91.4916 231.662,92.1583 232.5,92.5C 234.105,95.3777 235.439,98.3777 236.5,101.5C 236.427,103.027 237.094,104.027 238.5,104.5C 240.248,106.16 240.748,108.16 240,110.5C 237.473,115.553 234.973,120.553 232.5,125.5C 229.928,129.639 227.595,133.973 225.5,138.5C 224.833,138.5 224.5,138.833 224.5,139.5C 223.662,139.842 223.328,140.508 223.5,141.5C 220.82,146.86 218.153,152.193 215.5,157.5C 212.943,161.608 210.61,165.941 208.5,170.5C 205.237,176.792 201.904,183.125 198.5,189.5C 194.421,196.642 190.421,204.308 186.5,212.5C 179.438,214.573 172.105,215.073 164.5,214C 162.293,211.882 162.293,209.716 164.5,207.5C 165.906,207.027 166.573,206.027 166.5,204.5C 167.992,200.182 169.992,196.182 172.5,192.5C 173.906,192.027 174.573,191.027 174.5,189.5C 174.5,189.167 174.5,188.833 174.5,188.5C 175.906,188.027 176.573,187.027 176.5,185.5C 176.751,183.83 177.418,182.33 178.5,181C 178.167,180.667 177.833,180.333 177.5,180C 178.416,179.626 179.25,179.126 180,178.5C 180.374,176.509 181.207,174.842 182.5,173.5C 183.906,173.027 184.573,172.027 184.5,170.5C 184.328,169.508 184.662,168.842 185.5,168.5C 186.674,167.486 187.34,166.153 187.5,164.5C 188.817,160.823 190.817,156.99 193.5,153C 193.167,152.667 192.833,152.333 192.5,152C 193.691,151.302 194.691,150.469 195.5,149.5C 196.338,149.158 196.672,148.492 196.5,147.5C 196.328,146.508 196.662,145.842 197.5,145.5C 198.89,144.101 199.89,142.434 200.5,140.5C 200.328,139.508 200.662,138.842 201.5,138.5C 203.008,136.819 204.008,134.819 204.5,132.5C 207.93,125.303 211.597,118.303 215.5,111.5C 218.167,109.833 218.167,108.167 215.5,106.5C 214.308,104.887 213.308,103.22 212.5,101.5C 211.89,100.609 211.557,99.609 211.5,98.5C 211.573,96.9731 210.906,95.9731 209.5,95.5C 205.996,89.194 202.33,82.5274 198.5,75.5C 195.566,69.2747 192.566,63.608 189.5,58.5C 187.405,53.9726 185.072,49.6392 182.5,45.5C 182.672,44.5084 182.338,43.8417 181.5,43.5C 178.403,36.9695 175.07,30.6362 171.5,24.5C 171.443,23.391 171.11,22.391 170.5,21.5C 170.672,20.5084 170.338,19.8417 169.5,19.5C 167.151,15.8443 164.818,11.5109 162.5,6.5C 162.863,5.81654 163.196,5.14987 163.5,4.5C 164.492,4.67158 165.158,4.33825 165.5,3.5C 171.932,2.19274 178.266,2.19274 184.5,3.5 Z"/></g>
<g><path style="opacity:1" fill="#000000" d="M 79.5,4.5 C 79.5,5.5 79.5,6.5 79.5,7.5C 79.2964,9.68545 78.6298,11.6854 77.5,13.5C 76.8571,15.0764 75.8571,16.4097 74.5,17.5C 73.6618,17.8417 73.3284,18.5084 73.5,19.5C 70.8945,25.4219 67.8945,31.0885 64.5,36.5C 63.6618,36.8417 63.3284,37.5084 63.5,38.5C 61.5606,43.0902 59.2272,47.4235 56.5,51.5C 55.6618,51.8417 55.3284,52.5084 55.5,53.5C 54.3583,57.1168 52.6916,60.4502 50.5,63.5C 49.0937,63.9731 48.427,64.9731 48.5,66.5C 47.1287,70.6929 45.1287,74.5263 42.5,78C 42.8333,78.3333 43.1667,78.6667 43.5,79C 42.3094,79.6979 41.3094,80.5313 40.5,81.5C 39.6618,81.8417 39.3284,82.5084 39.5,83.5C 39.3404,85.153 38.6737,86.4863 37.5,87.5C 36.6618,87.8417 36.3284,88.5084 36.5,89.5C 33.7547,95.325 30.7547,100.992 27.5,106.5C 26.6618,106.842 26.3284,107.508 26.5,108.5C 26.5,108.833 26.5,109.167 26.5,109.5C 26.3284,110.492 26.6618,111.158 27.5,111.5C 32.7681,121.036 37.7681,130.703 42.5,140.5C 42.427,142.027 43.0937,143.027 44.5,143.5C 46.6916,146.55 48.3583,149.883 49.5,153.5C 49.427,155.027 50.0937,156.027 51.5,156.5C 54.4768,161.118 57.1434,166.451 59.5,172.5C 59.427,174.027 60.0937,175.027 61.5,175.5C 62.6005,176.605 63.2671,177.938 63.5,179.5C 63.3284,180.492 63.6618,181.158 64.5,181.5C 69.8925,190.61 75.0591,199.944 80,209.5C 81.0577,213.288 79.5577,215.288 75.5,215.5C 70.5,215.5 65.5,215.5 60.5,215.5C 57.8932,214.288 56.2265,212.288 55.5,209.5C 55.3404,207.847 54.6737,206.514 53.5,205.5C 50.9284,201.361 48.5951,197.027 46.5,192.5C 46.6716,191.508 46.3382,190.842 45.5,190.5C 45.1667,189.833 44.8333,189.167 44.5,188.5C 44.6716,187.508 44.3382,186.842 43.5,186.5C 43.3404,184.847 42.6737,183.514 41.5,182.5C 38.9836,179.466 36.9836,176.132 35.5,172.5C 35.5,172.167 35.5,171.833 35.5,171.5C 35.6716,170.508 35.3382,169.842 34.5,169.5C 33.7611,169.631 33.0944,169.464 32.5,169C 33.1712,168.014 33.1712,166.847 32.5,165.5C 32.6716,164.508 32.3382,163.842 31.5,163.5C 30.7611,163.631 30.0944,163.464 29.5,163C 30.5981,162.23 30.5981,161.397 29.5,160.5C 29.6716,159.508 29.3382,158.842 28.5,158.5C 26.9752,156.784 25.9752,154.784 25.5,152.5C 25.3404,150.847 24.6737,149.514 23.5,148.5C 22.6618,148.158 22.3284,147.492 22.5,146.5C 22.573,144.973 21.9063,143.973 20.5,143.5C 19.8902,142.609 19.5569,141.609 19.5,140.5C 19.0679,139.29 18.4013,138.29 17.5,137.5C 17.6716,136.508 17.3382,135.842 16.5,135.5C 15.6618,135.158 15.3284,134.492 15.5,133.5C 15.6716,132.508 15.3382,131.842 14.5,131.5C 13.1667,129.5 11.8333,127.5 10.5,125.5C 9.22713,123.287 8.22713,120.954 7.5,118.5C 7.67158,117.508 7.33825,116.842 6.5,116.5C 5.83333,115.833 5.16667,115.167 4.5,114.5C 4.44312,113.391 4.10978,112.391 3.5,111.5C 3.5,110.167 3.5,108.833 3.5,107.5C 4.33825,107.158 4.67158,106.492 4.5,105.5C 4.32842,104.508 4.66175,103.842 5.5,103.5C 6.33825,103.158 6.67158,102.492 6.5,101.5C 7.33825,101.158 7.67158,100.492 7.5,99.5C 8.90632,99.0269 9.57298,98.0269 9.5,96.5C 9.5,96.1667 9.5,95.8333 9.5,95.5C 10.3382,95.1583 10.6716,94.4916 10.5,93.5C 11.4013,92.7095 12.0679,91.7095 12.5,90.5C 12.5,90.1667 12.5,89.8333 12.5,89.5C 13.4013,88.7095 14.0679,87.7095 14.5,86.5C 14.3284,85.5084 14.6618,84.8417 15.5,84.5C 16.9063,84.0269 17.573,83.0269 17.5,81.5C 17.5,81.1667 17.5,80.8333 17.5,80.5C 18.1667,80.5 18.5,80.1667 18.5,79.5C 18.5569,78.391 18.8902,77.391 19.5,76.5C 20.9063,76.0269 21.573,75.0269 21.5,73.5C 21.5,73.1667 21.5,72.8333 21.5,72.5C 22.9063,72.0269 23.573,71.0269 23.5,69.5C 24.3382,69.1583 24.6716,68.4916 24.5,67.5C 24.7329,65.9382 25.3995,64.6049 26.5,63.5C 27.9063,63.0269 28.573,62.0269 28.5,60.5C 28.3893,59.8826 28.056,59.3826 27.5,59C 28.4158,58.7216 29.0825,58.2216 29.5,57.5C 30.8897,56.1007 31.8897,54.4341 32.5,52.5C 32.3284,51.5084 32.6618,50.8417 33.5,50.5C 34.9063,50.0269 35.573,49.0269 35.5,47.5C 36.086,45.1602 37.086,42.9935 38.5,41C 38.1667,40.6667 37.8333,40.3333 37.5,40C 38.6906,39.3021 39.6906,38.4687 40.5,37.5C 41.3382,37.1583 41.6716,36.4916 41.5,35.5C 42.242,33.0202 43.242,30.6869 44.5,28.5C 45.7161,26.6961 46.7161,25.0294 47.5,23.5C 48.9063,23.0269 49.573,22.0269 49.5,20.5C 49.3284,19.5084 49.6618,18.8417 50.5,18.5C 51.3382,18.1583 51.6716,17.4916 51.5,16.5C 52.9063,16.0269 53.573,15.0269 53.5,13.5C 53.3893,12.8826 53.056,12.3826 52.5,12C 54.0557,11.2798 55.0557,10.1132 55.5,8.5C 57.2014,7.78859 58.2014,6.45525 58.5,4.5C 58.7828,3.71087 59.2828,3.0442 60,2.5C 66.1701,2.8674 72.1701,2.8674 78,2.5C 78.7172,3.0442 79.2172,3.71087 79.5,4.5 Z"/></g>
<g><path style="opacity:0.129" fill="#000000" d="M 79.5,4.5 C 81.5567,6.04329 81.5567,7.04329 79.5,7.5C 79.5,6.5 79.5,5.5 79.5,4.5 Z"/></g>
<g><path style="opacity:0.243" fill="#000000" d="M 184.5,3.5 C 185.906,3.97306 186.573,4.97306 186.5,6.5C 185.094,6.02694 184.427,5.02694 184.5,3.5 Z"/></g>
<g><path style="opacity:0.961" fill="#000000" d="M 58.5,4.5 C 58.2014,6.45525 57.2014,7.78859 55.5,8.5C 55.0618,8.56544 54.7284,8.39877 54.5,8C 55.5323,6.37322 56.8656,5.20655 58.5,4.5 Z"/></g>
<g><path style="opacity:0.016" fill="#000000" d="M 77.5,13.5 C 78.8333,14.1667 78.8333,14.1667 77.5,13.5 Z"/></g>
<g><path style="opacity:0.812" fill="#000000" d="M 53.5,13.5 C 53.573,15.0269 52.9063,16.0269 51.5,16.5C 50.5092,14.8773 51.1759,13.8773 53.5,13.5 Z"/></g>
<g><path style="opacity:0.006" fill="#000000" d="M 51.5,16.5 C 51.6716,17.4916 51.3382,18.1583 50.5,18.5C 48.9689,17.0755 49.3023,16.4088 51.5,16.5 Z"/></g>
<g><path style="opacity:0.106" fill="#000000" d="M 74.5,17.5 C 76.0311,18.9245 75.6977,19.5912 73.5,19.5C 73.3284,18.5084 73.6618,17.8417 74.5,17.5 Z"/></g>
<g><path style="opacity:0.004" fill="#000000" d="M 194.5,19.5 C 195.833,20.1667 195.833,20.1667 194.5,19.5 Z"/></g>
<g><path style="opacity:0.027" fill="#000000" d="M 169.5,19.5 C 170.338,19.8417 170.672,20.5084 170.5,21.5C 168.302,21.5912 167.969,20.9245 169.5,19.5 Z"/></g>
<g><path style="opacity:0.102" fill="#000000" d="M 49.5,20.5 C 49.573,22.0269 48.9063,23.0269 47.5,23.5C 47.427,21.9731 48.0937,20.9731 49.5,20.5 Z"/></g>
<g><path style="opacity:0.008" fill="#000000" d="M 171.5,24.5 C 170.833,25.1667 170.833,25.1667 171.5,24.5 Z"/></g>
<g><path style="opacity:0.008" fill="#000000" d="M 44.5,28.5 C 43.8333,27.1667 43.8333,27.1667 44.5,28.5 Z"/></g>
<g><path style="opacity:0.055" fill="#000000" d="M 41.5,35.5 C 41.6716,36.4916 41.3382,37.1583 40.5,37.5C 38.9689,36.0755 39.3023,35.4088 41.5,35.5 Z"/></g>
<g><path style="opacity:0.043" fill="#000000" d="M 64.5,36.5 C 66.0311,37.9245 65.6977,38.5912 63.5,38.5C 63.3284,37.5084 63.6618,36.8417 64.5,36.5 Z"/></g>
<g><path style="opacity:0.259" fill="#000000" d="M 202.5,37.5 C 203.906,37.9731 204.573,38.9731 204.5,40.5C 203.094,40.0269 202.427,39.0269 202.5,37.5 Z"/></g>
<g><path style="opacity:0.016" fill="#000000" d="M 205.5,40.5 C 206.833,41.1667 206.833,41.1667 205.5,40.5 Z"/></g>
<g><path style="opacity:0.02" fill="#000000" d="M 181.5,43.5 C 180.833,44.1667 180.833,44.1667 181.5,43.5 Z"/></g>
<g><path style="opacity:0.02" fill="#000000" d="M 182.5,45.5 C 181.833,46.1667 181.833,46.1667 182.5,45.5 Z"/></g>
<g><path style="opacity:0.831" fill="#000000" d="M 35.5,47.5 C 35.573,49.0269 34.9063,50.0269 33.5,50.5C 32.5092,48.8773 33.1759,47.8773 35.5,47.5 Z"/></g>
<g><path style="opacity:0.037" fill="#000000" d="M 56.5,51.5 C 58.0311,52.9245 57.6977,53.5912 55.5,53.5C 55.3284,52.5084 55.6618,51.8417 56.5,51.5 Z"/></g>
<g><path style="opacity:0.61" fill="#000000" d="M 163.5,54.5 C 135.5,54.5 107.5,54.5 79.5,54.5C 79.811,53.5222 80.4777,52.8555 81.5,52.5C 108.961,53.1585 136.294,53.8251 163.5,54.5 Z"/></g>
<g><path style="opacity:0.055" fill="#000000" d="M 32.5,52.5 C 31.8897,54.4341 30.8897,56.1007 29.5,57.5C 29.0633,55.4048 30.0633,53.7382 32.5,52.5 Z"/></g>
<g><path style="opacity:1" fill="#000000" d="M 79.5,54.5 C 107.5,54.5 135.5,54.5 163.5,54.5C 165.588,56.3356 166.921,58.6689 167.5,61.5C 167.427,63.0269 168.094,64.0269 169.5,64.5C 169.5,64.8333 169.5,65.1667 169.5,65.5C 169.427,67.0269 170.094,68.0269 171.5,68.5C 174.035,70.8465 174.702,73.5132 173.5,76.5C 173.167,75.1667 172.833,75.1667 172.5,76.5C 138.498,76.6667 104.498,76.5 70.5,76C 69.6634,74.9887 69.33,73.8221 69.5,72.5C 70.9063,72.0269 71.573,71.0269 71.5,69.5C 71.5,69.1667 71.5,68.8333 71.5,68.5C 72.3382,68.1583 72.6716,67.4916 72.5,66.5C 73.4013,65.7095 74.0679,64.7095 74.5,63.5C 75.9063,63.0269 76.573,62.0269 76.5,60.5C 76.9752,58.2163 77.9752,56.2163 79.5,54.5 Z"/></g>
<g><path style="opacity:0.02" fill="#000000" d="M 189.5,58.5 C 188.833,59.1667 188.833,59.1667 189.5,58.5 Z"/></g>
<g><path style="opacity:0.329" fill="#000000" d="M 212.5,56.5 C 213.906,56.9731 214.573,57.9731 214.5,59.5C 213.094,59.0269 212.427,58.0269 212.5,56.5 Z"/></g>
<g><path style="opacity:0.275" fill="#000000" d="M 28.5,60.5 C 28.573,62.0269 27.9063,63.0269 26.5,63.5C 26.427,61.9731 27.0937,60.9731 28.5,60.5 Z"/></g>
<g><path style="opacity:0.153" fill="#000000" d="M 76.5,60.5 C 76.573,62.0269 75.9063,63.0269 74.5,63.5C 74.427,61.9731 75.0937,60.9731 76.5,60.5 Z"/></g>
<g><path style="opacity:0.161" fill="#000000" d="M 167.5,61.5 C 168.906,61.9731 169.573,62.9731 169.5,64.5C 168.094,64.0269 167.427,63.0269 167.5,61.5 Z"/></g>
<g><path style="opacity:0.133" fill="#000000" d="M 50.5,63.5 C 50.573,65.0269 49.9063,66.0269 48.5,66.5C 48.427,64.9731 49.0937,63.9731 50.5,63.5 Z"/></g>
<g><path style="opacity:0.004" fill="#000000" d="M 72.5,66.5 C 71.8333,65.1667 71.8333,65.1667 72.5,66.5 Z"/></g>
<g><path style="opacity:0.024" fill="#000000" d="M 24.5,67.5 C 24.6716,68.4916 24.3382,69.1583 23.5,69.5C 21.9689,68.0755 22.3023,67.4088 24.5,67.5 Z"/></g>
<g><path style="opacity:0.012" fill="#000000" d="M 71.5,68.5 C 70.8333,67.1667 70.8333,67.1667 71.5,68.5 Z"/></g>
<g><path style="opacity:0.294" fill="#000000" d="M 169.5,65.5 C 170.906,65.9731 171.573,66.9731 171.5,68.5C 170.094,68.0269 169.427,67.0269 169.5,65.5 Z"/></g>
<g><path style="opacity:0.4" fill="#000000" d="M 71.5,69.5 C 71.573,71.0269 70.9063,72.0269 69.5,72.5C 69.427,70.9731 70.0937,69.9731 71.5,69.5 Z"/></g>
<g><path style="opacity:0.094" fill="#000000" d="M 23.5,69.5 C 23.573,71.0269 22.9063,72.0269 21.5,72.5C 20.9836,71.2418 21.6503,70.2418 23.5,69.5 Z"/></g>
<g><path style="opacity:0.204" fill="#000000" d="M 21.5,73.5 C 21.573,75.0269 20.9063,76.0269 19.5,76.5C 19.427,74.9731 20.0937,73.9731 21.5,73.5 Z"/></g>
<g><path style="opacity:0.027" fill="#000000" d="M 198.5,75.5 C 197.833,76.1667 197.833,76.1667 198.5,75.5 Z"/></g>
<g><path style="opacity:0.016" fill="#000000" d="M 172.5,76.5 C 172.833,76.5 173.167,76.5 173.5,76.5C 173.315,77.1701 172.981,77.1701 172.5,76.5 Z"/></g>
<g><path style="opacity:0.039" fill="#000000" d="M 18.5,79.5 C 18.5,80.1667 18.1667,80.5 17.5,80.5C 16.2576,78.654 16.591,78.3207 18.5,79.5 Z"/></g>
<g><path style="opacity:0.867" fill="#000000" d="M 17.5,81.5 C 17.573,83.0269 16.9063,84.0269 15.5,84.5C 14.5092,82.8773 15.1759,81.8773 17.5,81.5 Z"/></g>
<g><path style="opacity:0.086" fill="#000000" d="M 40.5,81.5 C 42.0311,82.9245 41.6977,83.5912 39.5,83.5C 39.3284,82.5084 39.6618,81.8417 40.5,81.5 Z"/></g>
<g><path style="opacity:0.137" fill="#000000" d="M 227.5,84.5 C 228.906,84.9731 229.573,85.9731 229.5,87.5C 228.094,87.0269 227.427,86.0269 227.5,84.5 Z"/></g>
<g><path style="opacity:0.059" fill="#000000" d="M 14.5,86.5 C 14.0679,87.7095 13.4013,88.7095 12.5,89.5C 12.0618,89.5654 11.7284,89.3988 11.5,89C 12.0779,87.583 13.0779,86.7496 14.5,86.5 Z"/></g>
<g><path style="opacity:0.02" fill="#000000" d="M 37.5,87.5 C 39.0311,88.9245 38.6977,89.5912 36.5,89.5C 36.3284,88.5084 36.6618,87.8417 37.5,87.5 Z"/></g>
<g><path style="opacity:0.008" fill="#000000" d="M 231.5,89.5 C 232.833,90.1667 232.833,90.1667 231.5,89.5 Z"/></g>
<g><path style="opacity:0.008" fill="#000000" d="M 12.5,90.5 C 12.0679,91.7095 11.4013,92.7095 10.5,93.5C 9.32642,91.6322 9.99309,90.6322 12.5,90.5 Z"/></g>
<g><path style="opacity:0.063" fill="#000000" d="M 232.5,91.5 C 233.833,92.1667 233.833,92.1667 232.5,91.5 Z"/></g>
<g><path style="opacity:0.231" fill="#000000" d="M 10.5,93.5 C 10.6716,94.4916 10.3382,95.1583 9.5,95.5C 8.56127,94.6726 8.89461,94.0059 10.5,93.5 Z"/></g>
<g><path style="opacity:0.776" fill="#000000" d="M 9.5,96.5 C 9.57298,98.0269 8.90632,99.0269 7.5,99.5C 6.50921,97.8773 7.17588,96.8773 9.5,96.5 Z"/></g>
<g><path style="opacity:0.604" fill="#000000" d="M 187.5,99.5 C 143.5,98.1667 99.5,98.1667 55.5,99.5C 54.3424,98.0502 54.8424,97.0502 57,96.5C 100.176,97.8087 143.509,97.8087 187,96.5C 187.483,97.448 187.649,98.448 187.5,99.5 Z"/></g>
<g><path style="opacity:0.075" fill="#000000" d="M 209.5,95.5 C 210.906,95.9731 211.573,96.9731 211.5,98.5C 210.094,98.0269 209.427,97.0269 209.5,95.5 Z"/></g>
<g><path style="opacity:1" fill="#020202" d="M 187.5,99.5 C 189.008,101.181 190.008,103.181 190.5,105.5C 191.038,107.117 191.371,108.784 191.5,110.5C 190.674,113.485 189.341,116.151 187.5,118.5C 143.5,119.833 99.5,119.833 55.5,118.5C 55.6716,117.508 55.3382,116.842 54.5,116.5C 53.8333,115.833 53.1667,115.167 52.5,114.5C 51.7659,113.292 51.4326,111.959 51.5,110.5C 51.5,109.167 51.5,107.833 51.5,106.5C 51.5,106.167 51.5,105.833 51.5,105.5C 52.6006,104.152 53.6006,102.652 54.5,101C 53.2881,99.8932 53.6214,99.3932 55.5,99.5C 99.5,98.1667 143.5,98.1667 187.5,99.5 Z"/></g>
<g><path style="opacity:0.02" fill="#000000" d="M 7.5,99.5 C 7.67158,100.492 7.33825,101.158 6.5,101.5C 4.96895,100.075 5.30228,99.4088 7.5,99.5 Z"/></g>
<g><path style="opacity:0.031" fill="#000000" d="M 6.5,101.5 C 6.67158,102.492 6.33825,103.158 5.5,103.5C 3.96895,102.075 4.30228,101.409 6.5,101.5 Z"/></g>
<g><path style="opacity:0.012" fill="#000000" d="M 212.5,101.5 C 211.833,102.167 211.833,102.167 212.5,101.5 Z"/></g>
<g><path style="opacity:0.173" fill="#000000" d="M 236.5,101.5 C 237.906,101.973 238.573,102.973 238.5,104.5C 237.094,104.027 236.427,103.027 236.5,101.5 Z"/></g>
<g><path style="opacity:0.004" fill="#000000" d="M 51.5,105.5 C 50.8333,104.167 50.8333,104.167 51.5,105.5 Z"/></g>
<g><path style="opacity:0.094" fill="#000000" d="M 4.5,105.5 C 4.67158,106.492 4.33825,107.158 3.5,107.5C 1.96895,106.075 2.30228,105.409 4.5,105.5 Z"/></g>
<g><path style="opacity:0.004" fill="#000000" d="M 27.5,106.5 C 28.4387,107.327 28.1054,107.994 26.5,108.5C 26.3284,107.508 26.6618,106.842 27.5,106.5 Z"/></g>
<g><path style="opacity:0.616" fill="#000000" d="M 215.5,106.5 C 218.167,108.167 218.167,109.833 215.5,111.5C 216.833,109.833 216.833,108.167 215.5,106.5 Z"/></g>
<g><path style="opacity:0.008" fill="#000000" d="M 3.5,107.5 C 3.5,108.833 3.5,110.167 3.5,111.5C 2.71087,111.217 2.0442,110.717 1.5,110C 2.83333,109.333 2.83333,108.667 1.5,108C 2.09442,107.536 2.76109,107.369 3.5,107.5 Z"/></g>
<g><path style="opacity:0.012" fill="#000000" d="M 26.5,109.5 C 28.6977,109.409 29.0311,110.075 27.5,111.5C 26.6618,111.158 26.3284,110.492 26.5,109.5 Z"/></g>
<g><path style="opacity:0.208" fill="#000000" d="M 51.5,106.5 C 51.5,107.833 51.5,109.167 51.5,110.5C 50.7611,110.631 50.0944,110.464 49.5,110C 50.0848,108.698 50.7515,107.531 51.5,106.5 Z"/></g>
<g><path style="opacity:0.004" fill="#000000" d="M 190.5,105.5 C 191.965,106.406 192.965,107.739 193.5,109.5C 193.043,110.298 192.376,110.631 191.5,110.5C 191.371,108.784 191.038,107.117 190.5,105.5 Z"/></g>
<g><path style="opacity:0.004" fill="#000000" d="M 4.5,114.5 C 3.83333,115.167 3.83333,115.167 4.5,114.5 Z"/></g>
<g><path style="opacity:0.004" fill="#000000" d="M 52.5,114.5 C 51.8333,115.167 51.8333,115.167 52.5,114.5 Z"/></g>
<g><path style="opacity:0.043" fill="#000000" d="M 6.5,116.5 C 7.33825,116.842 7.67158,117.508 7.5,118.5C 5.30228,118.591 4.96895,117.925 6.5,116.5 Z"/></g>
<g><path style="opacity:0.063" fill="#000000" d="M 54.5,116.5 C 55.3382,116.842 55.6716,117.508 55.5,118.5C 53.3023,118.591 52.9689,117.925 54.5,116.5 Z"/></g>
<g><path style="opacity:0.596" fill="#000000" d="M 55.5,118.5 C 99.5,119.833 143.5,119.833 187.5,118.5C 165.844,119.833 143.844,120.5 121.5,120.5C 99.1564,120.5 77.1564,119.833 55.5,118.5 Z"/></g>
<g><path style="opacity:0.016" fill="#000000" d="M 10.5,125.5 C 9.83333,126.167 9.83333,126.167 10.5,125.5 Z"/></g>
<g><path style="opacity:0.004" fill="#000000" d="M 232.5,125.5 C 233.833,126.167 233.833,126.167 232.5,125.5 Z"/></g>
<g><path style="opacity:0.071" fill="#000000" d="M 14.5,131.5 C 15.3382,131.842 15.6716,132.508 15.5,133.5C 13.3023,133.591 12.9689,132.925 14.5,131.5 Z"/></g>
<g><path style="opacity:0.02" fill="#000000" d="M 16.5,135.5 C 17.3382,135.842 17.6716,136.508 17.5,137.5C 15.3023,137.591 14.9689,136.925 16.5,135.5 Z"/></g>
<g><path style="opacity:0.094" fill="#000000" d="M 204.5,132.5 C 204.008,134.819 203.008,136.819 201.5,138.5C 201.461,135.911 202.461,133.911 204.5,132.5 Z"/></g>
<g><path style="opacity:0.004" fill="#000000" d="M 17.5,137.5 C 18.4013,138.29 19.0679,139.29 19.5,140.5C 16.9931,140.368 16.3264,139.368 17.5,137.5 Z"/></g>
<g><path style="opacity:0.027" fill="#000000" d="M 225.5,138.5 C 226.833,139.167 226.833,139.167 225.5,138.5 Z"/></g>
<g><path style="opacity:0.004" fill="#000000" d="M 224.5,139.5 C 226.031,140.925 225.698,141.591 223.5,141.5C 223.328,140.508 223.662,139.842 224.5,139.5 Z"/></g>
<g><path style="opacity:0.278" fill="#000000" d="M 42.5,140.5 C 43.9063,140.973 44.573,141.973 44.5,143.5C 43.0937,143.027 42.427,142.027 42.5,140.5 Z"/></g>
<g><path style="opacity:1" fill="#000000" d="M 172.5,142.5 C 172.5,143.833 172.5,145.167 172.5,146.5C 172.443,147.609 172.11,148.609 171.5,149.5C 170.094,149.973 169.427,150.973 169.5,152.5C 168.833,154.167 168.167,155.833 167.5,157.5C 166.833,157.5 166.5,157.833 166.5,158.5C 165.094,158.973 164.427,159.973 164.5,161.5C 164.672,162.492 164.338,163.158 163.5,163.5C 135.5,163.5 107.5,163.5 79.5,163.5C 76.917,160.003 74.5836,156.336 72.5,152.5C 72.4431,151.391 72.1098,150.391 71.5,149.5C 71.6716,148.508 71.3382,147.842 70.5,147.5C 70.5,146.833 70.1667,146.5 69.5,146.5C 68.2721,144.99 68.2721,143.49 69.5,142C 104.002,141.169 138.336,141.336 172.5,142.5 Z"/></g>
<g><path style="opacity:0.22" fill="#000000" d="M 200.5,140.5 C 199.89,142.434 198.89,144.101 197.5,145.5C 197.273,143.067 198.273,141.401 200.5,140.5 Z"/></g>
<g><path style="opacity:0.847" fill="#000000" d="M 172.5,142.5 C 174.781,143.634 174.781,144.968 172.5,146.5C 172.5,145.167 172.5,143.833 172.5,142.5 Z"/></g>
<g><path style="opacity:0.173" fill="#000000" d="M 20.5,143.5 C 21.9063,143.973 22.573,144.973 22.5,146.5C 21.0937,146.027 20.427,145.027 20.5,143.5 Z"/></g>
<g><path style="opacity:0.016" fill="#000000" d="M 69.5,146.5 C 68.8333,147.167 68.8333,147.167 69.5,146.5 Z"/></g>
<g><path style="opacity:0.016" fill="#000000" d="M 196.5,147.5 C 196.672,148.492 196.338,149.158 195.5,149.5C 193.969,148.075 194.302,147.409 196.5,147.5 Z"/></g>
<g><path style="opacity:0.02" fill="#000000" d="M 70.5,147.5 C 71.3382,147.842 71.6716,148.508 71.5,149.5C 69.3023,149.591 68.9689,148.925 70.5,147.5 Z"/></g>
<g><path style="opacity:0.059" fill="#000000" d="M 23.5,148.5 C 24.6737,149.514 25.3404,150.847 25.5,152.5C 23.8958,151.713 23.2291,150.38 23.5,148.5 Z"/></g>
<g><path style="opacity:0.012" fill="#000000" d="M 171.5,149.5 C 171.573,151.027 170.906,152.027 169.5,152.5C 169.427,150.973 170.094,149.973 171.5,149.5 Z"/></g>
<g><path style="opacity:0.004" fill="#000000" d="M 72.5,152.5 C 71.8333,153.167 71.8333,153.167 72.5,152.5 Z"/></g>
<g><path style="opacity:0.192" fill="#000000" d="M 49.5,153.5 C 50.9063,153.973 51.573,154.973 51.5,156.5C 50.0937,156.027 49.427,155.027 49.5,153.5 Z"/></g>
<g><path style="opacity:0.027" fill="#000000" d="M 167.5,157.5 C 168.833,158.167 168.833,158.167 167.5,157.5 Z"/></g>
<g><path style="opacity:0.016" fill="#000000" d="M 215.5,157.5 C 216.833,158.167 216.833,158.167 215.5,157.5 Z"/></g>
<g><path style="opacity:0.18" fill="#000000" d="M 28.5,158.5 C 29.3382,158.842 29.6716,159.508 29.5,160.5C 27.8946,159.994 27.5613,159.327 28.5,158.5 Z"/></g>
<g><path style="opacity:0.118" fill="#000000" d="M 166.5,158.5 C 166.573,160.027 165.906,161.027 164.5,161.5C 164.427,159.973 165.094,158.973 166.5,158.5 Z"/></g>
<g><path style="opacity:0.733" fill="#000000" d="M 79.5,163.5 C 107.5,163.5 135.5,163.5 163.5,163.5C 162.828,164.267 161.995,164.934 161,165.5C 134.333,164.167 107.667,164.167 81,165.5C 80.2828,164.956 79.7828,164.289 79.5,163.5 Z"/></g>
<g><path style="opacity:0.11" fill="#000000" d="M 31.5,163.5 C 32.3382,163.842 32.6716,164.508 32.5,165.5C 30.3023,165.591 29.9689,164.925 31.5,163.5 Z"/></g>
<g><path style="opacity:0.031" fill="#000000" d="M 162.5,165.5 C 163.833,166.167 163.833,166.167 162.5,165.5 Z"/></g>
<g><path style="opacity:0.082" fill="#000000" d="M 187.5,164.5 C 187.34,166.153 186.674,167.486 185.5,168.5C 185.229,166.62 185.896,165.287 187.5,164.5 Z"/></g>
<g><path style="opacity:0.016" fill="#000000" d="M 34.5,169.5 C 35.3382,169.842 35.6716,170.508 35.5,171.5C 33.3023,171.591 32.9689,170.925 34.5,169.5 Z"/></g>
<g><path style="opacity:0.035" fill="#000000" d="M 208.5,170.5 C 209.833,171.167 209.833,171.167 208.5,170.5 Z"/></g>
<g><path style="opacity:0.012" fill="#000000" d="M 35.5,172.5 C 34.8333,173.167 34.8333,173.167 35.5,172.5 Z"/></g>
<g><path style="opacity:0.22" fill="#000000" d="M 184.5,170.5 C 184.573,172.027 183.906,173.027 182.5,173.5C 182.427,171.973 183.094,170.973 184.5,170.5 Z"/></g>
<g><path style="opacity:0.235" fill="#000000" d="M 59.5,172.5 C 60.9063,172.973 61.573,173.973 61.5,175.5C 60.0937,175.027 59.427,174.027 59.5,172.5 Z"/></g>
<g><path style="opacity:0.008" fill="#000000" d="M 63.5,179.5 C 65.6977,179.409 66.0311,180.075 64.5,181.5C 63.6618,181.158 63.3284,180.492 63.5,179.5 Z"/></g>
<g><path style="opacity:0.999" fill="#000000" d="M 125.5,183.5 C 126.08,185.749 127.413,187.415 129.5,188.5C 130.833,189.5 132.167,190.5 133.5,191.5C 133.738,193.404 134.738,194.738 136.5,195.5C 136.938,195.435 137.272,195.601 137.5,196C 132.953,202.048 127.62,207.215 121.5,211.5C 120.478,211.145 119.811,210.478 119.5,209.5C 119.167,208.5 118.5,207.833 117.5,207.5C 116.167,206.833 115.167,205.833 114.5,204.5C 114.167,203.5 113.5,202.833 112.5,202.5C 111.5,200.833 110.167,199.5 108.5,198.5C 107.766,197.292 107.433,195.959 107.5,194.5C 107.833,193.5 108.5,192.833 109.5,192.5C 110.833,191.833 111.833,190.833 112.5,189.5C 113.833,187.5 115.5,185.833 117.5,184.5C 118.833,183.833 119.833,182.833 120.5,181.5C 120.56,180.957 120.893,180.624 121.5,180.5C 123.16,181.172 124.493,182.172 125.5,183.5 Z"/></g>
<g><path style="opacity:0.302" fill="#000000" d="M 120.5,181.5 C 119.833,182.833 118.833,183.833 117.5,184.5C 117.5,182.5 118.5,181.5 120.5,181.5 Z"/></g>
<g><path style="opacity:0.063" fill="#000000" d="M 41.5,182.5 C 42.6737,183.514 43.3404,184.847 43.5,186.5C 41.8958,185.713 41.2291,184.38 41.5,182.5 Z"/></g>
<g><path style="opacity:0.616" fill="#000000" d="M 125.5,183.5 C 127.587,184.585 128.92,186.251 129.5,188.5C 127.413,187.415 126.08,185.749 125.5,183.5 Z"/></g>
<g><path style="opacity:0.022" fill="#000000" d="M 43.5,186.5 C 44.3382,186.842 44.6716,187.508 44.5,188.5C 42.3023,188.591 41.9689,187.925 43.5,186.5 Z"/></g>
<g><path style="opacity:0.192" fill="#000000" d="M 176.5,185.5 C 176.573,187.027 175.906,188.027 174.5,188.5C 174.427,186.973 175.094,185.973 176.5,185.5 Z"/></g>
<g><path style="opacity:0.016" fill="#000000" d="M 198.5,189.5 C 199.833,190.167 199.833,190.167 198.5,189.5 Z"/></g>
<g><path style="opacity:0.282" fill="#000000" d="M 45.5,190.5 C 46.3382,190.842 46.6716,191.508 46.5,192.5C 44.8946,191.994 44.5613,191.327 45.5,190.5 Z"/></g>
<g><path style="opacity:0.31" fill="#000000" d="M 112.5,189.5 C 111.833,190.833 110.833,191.833 109.5,192.5C 109.5,190.5 110.5,189.5 112.5,189.5 Z"/></g>
<g><path style="opacity:0.322" fill="#000000" d="M 174.5,189.5 C 174.573,191.027 173.906,192.027 172.5,192.5C 172.427,190.973 173.094,189.973 174.5,189.5 Z"/></g>
<g><path style="opacity:0.608" fill="#000000" d="M 133.5,191.5 C 135.262,192.262 136.262,193.596 136.5,195.5C 134.738,194.738 133.738,193.404 133.5,191.5 Z"/></g>
<g><path style="opacity:0.008" fill="#000000" d="M 45.5,194.5 C 46.8333,195.167 46.8333,195.167 45.5,194.5 Z"/></g>
<g><path style="opacity:0.569" fill="#000000" d="M 107.5,194.5 C 107.433,195.959 107.766,197.292 108.5,198.5C 105.588,197.422 105.254,196.088 107.5,194.5 Z"/></g>
<g><path style="opacity:0.008" fill="#000000" d="M 108.5,198.5 C 110.167,199.5 111.5,200.833 112.5,202.5C 110.167,202.167 108.833,200.833 108.5,198.5 Z"/></g>
<g><path style="opacity:0.012" fill="#000000" d="M 112.5,202.5 C 113.5,202.833 114.167,203.5 114.5,204.5C 113.167,204.5 112.5,203.833 112.5,202.5 Z"/></g>
<g><path style="opacity:0.055" fill="#000000" d="M 53.5,205.5 C 54.6737,206.514 55.3404,207.847 55.5,209.5C 53.8958,208.713 53.2291,207.38 53.5,205.5 Z"/></g>
<g><path style="opacity:0.275" fill="#000000" d="M 166.5,204.5 C 166.573,206.027 165.906,207.027 164.5,207.5C 164.427,205.973 165.094,204.973 166.5,204.5 Z"/></g>
<g><path style="opacity:0.071" fill="#000000" d="M 117.5,207.5 C 118.5,207.833 119.167,208.5 119.5,209.5C 118.167,209.5 117.5,208.833 117.5,207.5 Z"/></g>
<g><path style="opacity:0.012" fill="#000000" d="M 186.5,212.5 C 187.833,213.167 187.833,213.167 186.5,212.5 Z"/></g>
</svg>