<?xml version="1.0" standalone="no"?>
<!DOCTYPE svg PUBLIC "-//W3C//DTD SVG 20010904//EN"
 "http://www.w3.org/TR/2001/REC-SVG-20010904/DTD/svg10.dtd">
<svg version="1.0" xmlns="http://www.w3.org/2000/svg"
 width="1279.000000pt" height="1346.000000pt" viewBox="0 0 1279.000000 1346.000000"
 preserveAspectRatio="xMidYMid meet">
<metadata>
Created by potrace 1.16, written by Peter Selinger 2001-2019
</metadata>
<g transform="translate(0.000000,1346.000000) scale(0.100000,-0.100000)"
fill="#000000" stroke="none">
<path d="M3202 12408 l3 -1053 1073 -3 1072 -2 0 -2740 0 -2740 1040 0 1040 0
0 3795 0 3795 -2115 0 -2115 0 2 -1052z"/>
<path d="M8462 12223 c0 -104 -1 -512 -4 -908 -2 -396 -1 -821 2 -944 l5 -224
60 -31 c33 -17 64 -37 68 -43 4 -7 13 -13 19 -13 6 0 19 -6 27 -14 9 -8 23
-16 31 -18 8 -2 23 -11 34 -20 11 -10 25 -18 32 -18 7 0 17 -6 21 -13 8 -13
82 -63 96 -65 4 -1 15 -8 23 -17 9 -8 37 -29 62 -47 51 -35 52 -35 98 -73 18
-14 34 -25 37 -25 3 0 29 -22 58 -50 30 -27 57 -50 60 -50 4 0 34 -27 68 -60
33 -32 61 -57 61 -54 0 2 36 -32 80 -77 44 -44 80 -82 80 -85 0 -2 32 -36 70
-75 39 -40 70 -74 70 -76 0 -3 34 -41 85 -97 6 -6 24 -29 40 -51 30 -40 108
-138 129 -162 29 -32 36 -43 36 -53 0 -5 5 -10 12 -10 6 0 8 -3 5 -6 -3 -4 12
-27 33 -52 22 -25 38 -47 35 -50 -6 -6 34 -64 52 -75 7 -4 13 -15 13 -23 0 -8
15 -38 33 -67 19 -28 43 -65 53 -82 10 -16 31 -54 46 -83 14 -29 30 -58 36
-65 5 -7 22 -41 38 -77 15 -36 35 -76 45 -90 9 -14 20 -36 24 -50 4 -14 19
-50 33 -80 14 -30 26 -59 28 -65 14 -45 45 -128 51 -138 4 -6 8 -16 9 -22 1
-5 11 -37 22 -70 29 -85 76 -238 77 -250 2 -27 18 -81 27 -92 5 -7 7 -16 4
-21 -3 -5 2 -33 10 -63 14 -51 17 -65 28 -122 2 -12 9 -51 16 -87 6 -36 13
-78 15 -95 1 -16 3 -30 4 -30 1 0 4 -22 6 -50 2 -27 6 -64 10 -82 3 -18 8 -61
10 -95 2 -35 7 -106 11 -158 9 -118 8 -509 -1 -610 -9 -100 -13 -135 -30 -230
-1 -8 -6 -38 -9 -65 -12 -82 -14 -98 -25 -141 -6 -23 -13 -56 -15 -75 -5 -36
-7 -44 -30 -129 -8 -30 -16 -66 -18 -80 -2 -14 -7 -31 -11 -37 -4 -7 -10 -25
-12 -40 -2 -16 -11 -47 -20 -71 -8 -24 -16 -54 -17 -68 -1 -13 -6 -24 -11 -24
-5 0 -7 -7 -3 -15 3 -8 1 -15 -5 -15 -6 0 -7 -5 -3 -11 3 -6 3 -14 -2 -18 -11
-7 -56 -129 -58 -153 0 -10 -3 -18 -7 -18 -3 0 -18 -35 -32 -78 -14 -43 -35
-96 -46 -118 -11 -21 -51 -102 -89 -180 -38 -77 -86 -166 -106 -198 -20 -31
-36 -61 -36 -67 0 -5 -5 -15 -10 -22 -24 -29 -70 -103 -70 -114 0 -7 -4 -13
-8 -13 -4 0 -33 -37 -62 -82 -30 -46 -61 -87 -67 -91 -7 -4 -13 -14 -13 -22 0
-8 -7 -18 -16 -23 -9 -5 -16 -13 -16 -18 1 -5 -15 -26 -34 -47 -19 -20 -31
-37 -27 -37 4 0 -3 -7 -15 -16 -12 -8 -29 -27 -36 -42 -8 -15 -35 -48 -61 -74
-25 -27 -43 -48 -39 -48 3 0 -26 -31 -65 -70 -39 -38 -71 -73 -71 -77 0 -10
-51 -53 -63 -53 -6 0 -8 -3 -4 -6 3 -3 -18 -26 -46 -52 -52 -46 -104 -94 -158
-145 -15 -15 -31 -27 -34 -27 -6 0 -46 -34 -93 -78 -18 -17 -36 -32 -39 -32
-3 0 -17 -10 -32 -22 -15 -13 -40 -32 -55 -43 -16 -11 -40 -29 -55 -41 -14
-11 -41 -29 -58 -39 -18 -11 -33 -23 -33 -27 0 -4 -7 -8 -15 -8 -7 0 -18 -8
-24 -18 -5 -9 -13 -17 -18 -16 -11 1 -87 -47 -91 -58 -2 -4 -8 -6 -12 -3 -5 3
-18 -3 -30 -15 -11 -11 -24 -20 -29 -20 -5 0 -14 -7 -21 -15 -7 -8 -16 -13
-20 -10 -3 2 -17 -3 -29 -12 -37 -26 -384 -204 -406 -209 -5 -1 -28 -10 -50
-19 -72 -31 -90 -38 -104 -41 -8 -1 -18 -9 -22 -16 -5 -7 -9 -9 -9 -4 0 5 -7
3 -15 -4 -8 -7 -15 -10 -15 -6 0 4 -13 0 -30 -9 -16 -8 -33 -16 -37 -17 -5 0
-17 -4 -28 -9 -11 -4 -60 -20 -110 -34 -49 -15 -108 -32 -130 -40 -100 -32
-119 -37 -149 -42 -17 -3 -39 -9 -48 -14 -9 -5 -30 -9 -47 -9 -16 0 -33 -5
-36 -11 -4 -6 -14 -8 -22 -5 -8 3 -20 3 -26 -1 -7 -4 -19 -8 -27 -8 -15 -1
-87 -13 -125 -22 -36 -8 -69 -12 -140 -19 -38 -3 -72 -7 -75 -9 -3 -2 -51 -6
-105 -10 -55 -3 -118 -8 -140 -12 -48 -7 -418 -5 -530 2 -112 8 -175 14 -210
19 -16 3 -59 8 -95 12 -102 10 -119 12 -127 17 -4 3 -33 8 -63 11 -71 8 -83
10 -95 18 -8 4 -101 19 -132 20 -5 0 -16 4 -26 10 -17 9 -18 -31 -17 -1029 1
-571 4 -1050 7 -1065 3 -17 11 -27 21 -26 9 0 35 -3 57 -7 271 -43 284 -44
970 -41 636 2 789 7 825 26 10 5 20 7 23 4 2 -3 45 2 93 12 49 9 100 18 114
19 67 8 187 30 193 35 1 1 16 3 32 5 17 2 51 9 75 16 52 14 55 15 95 22 40 7
87 17 105 24 8 3 22 7 30 8 40 7 151 37 205 55 33 11 70 23 81 25 12 3 38 12
58 20 20 8 36 13 36 11 0 -3 16 2 35 10 19 8 35 12 35 9 0 -3 14 2 31 11 17 8
38 17 47 19 10 2 31 9 47 16 17 6 36 13 44 15 7 1 39 12 70 24 31 12 65 25 76
30 11 4 31 12 45 18 79 35 106 45 113 44 4 -1 7 2 7 8 0 6 3 9 8 8 15 -4 82
24 82 34 0 6 3 9 6 5 4 -3 19 0 35 9 16 8 30 13 31 12 2 -2 18 7 36 20 17 13
32 21 32 18 0 -3 77 33 170 80 94 48 170 91 170 96 0 5 4 7 8 4 5 -3 25 6 45
19 20 14 39 25 43 25 3 0 25 13 48 28 22 15 48 31 58 34 9 4 85 53 170 109
227 151 228 152 228 161 0 4 5 8 11 8 6 0 17 6 24 12 29 26 40 34 58 41 9 3
17 11 17 17 0 5 6 10 13 10 7 0 20 8 29 18 26 27 48 43 48 36 0 -4 12 3 28 17
15 14 44 38 65 53 20 15 50 39 65 53 15 14 44 39 65 57 21 17 52 43 70 59 17
15 35 27 39 27 5 0 6 5 3 10 -3 6 -2 10 4 10 10 0 62 45 150 129 31 30 66 60
78 68 13 9 20 20 16 26 -3 5 -2 7 4 4 11 -7 283 269 283 288 0 4 17 22 38 41
20 18 34 34 30 34 -4 0 4 12 18 28 15 15 39 41 54 57 15 17 45 53 66 80 21 28
44 56 51 63 7 7 13 16 13 20 0 4 14 22 31 40 16 17 28 32 25 32 -3 0 8 15 25
32 16 18 29 38 29 44 0 7 4 14 8 16 8 3 42 46 94 119 9 13 17 28 17 32 0 5 8
16 18 25 25 23 73 95 73 110 0 7 4 12 10 12 5 0 23 27 40 60 17 33 35 60 40
60 6 0 10 9 10 20 0 10 6 23 14 27 15 9 51 74 48 85 -1 5 2 8 7 8 5 0 15 15
22 33 7 17 21 41 31 51 10 11 18 23 18 28 0 15 4 23 22 42 10 11 18 26 18 34
0 7 7 20 15 29 8 8 13 19 10 24 -4 5 -2 9 2 9 5 0 30 44 57 97 27 54 52 106
57 115 5 10 9 22 9 27 0 6 14 33 30 61 17 28 32 59 33 68 1 9 7 24 12 32 22
35 55 113 50 120 -3 5 0 10 5 12 6 2 12 13 13 26 0 12 6 22 11 22 5 0 6 3 3 7
-4 3 -2 12 4 19 5 7 12 25 15 40 3 16 9 31 14 34 7 4 14 23 25 70 4 14 18 47
27 64 15 28 68 198 68 219 0 9 4 17 8 17 4 0 14 28 21 63 8 34 18 67 23 74 5
7 7 17 3 23 -3 5 -1 10 5 10 6 0 10 6 8 13 -1 6 3 28 10 47 6 19 14 46 16 60
3 14 5 27 6 30 1 3 3 10 5 15 1 6 3 12 5 15 1 3 4 14 6 25 1 11 6 31 9 45 4
14 8 34 10 45 2 11 7 31 10 45 4 14 8 34 10 45 2 11 7 31 10 45 4 14 8 32 10
40 1 8 5 22 8 30 4 8 8 33 10 55 2 22 6 45 9 50 3 6 9 37 13 70 3 32 8 62 10
65 2 3 6 29 10 59 4 30 9 63 11 75 2 12 6 45 8 73 3 29 7 56 9 60 3 5 8 46 11
93 4 47 11 125 16 174 12 121 12 847 -1 966 -5 52 -12 120 -15 150 -2 30 -7
71 -9 90 -3 19 -5 42 -6 50 0 8 -5 44 -11 80 -5 36 -12 81 -14 100 -2 19 -9
60 -16 90 -6 30 -11 64 -10 75 1 10 -4 25 -9 32 -6 6 -8 17 -4 23 4 6 2 16 -4
23 -5 7 -11 32 -12 56 -2 23 -7 45 -11 47 -4 3 -8 25 -8 49 0 24 -4 46 -9 49
-4 3 -11 29 -15 58 -3 29 -18 91 -32 138 -14 47 -26 93 -26 103 1 9 -2 17 -6
17 -4 0 -8 8 -9 18 -1 27 -43 166 -53 176 -5 5 -6 15 -3 22 3 8 1 14 -4 14 -5
0 -10 7 -10 15 0 27 -36 135 -45 135 -5 0 -6 4 -3 10 3 5 -2 22 -12 37 -10 15
-17 28 -15 30 1 2 2 4 1 6 0 1 -2 9 -4 17 -2 8 -9 29 -16 45 -6 17 -14 38 -16
49 -2 10 -14 40 -27 66 -14 27 -22 51 -19 54 4 3 2 6 -3 6 -5 0 -10 10 -11 21
-1 12 -9 29 -17 38 -9 10 -16 27 -16 39 0 11 -4 24 -10 27 -5 3 -10 15 -10 25
0 10 -7 25 -15 34 -8 8 -15 22 -15 30 0 9 -4 16 -10 16 -5 0 -9 3 -8 8 3 12
-25 82 -34 82 -4 0 -8 9 -8 19 0 11 -7 27 -16 35 -8 9 -13 16 -10 16 9 0 -43
101 -63 124 -9 10 -15 20 -13 22 3 6 -23 60 -58 119 -17 28 -37 64 -45 82 -8
17 -20 37 -27 45 -7 7 -24 35 -38 61 -14 27 -32 56 -40 66 -8 9 -16 23 -18 30
-4 21 -34 61 -45 61 -6 0 -7 3 -4 6 6 6 -26 60 -43 74 -3 3 -19 27 -34 54 -15
26 -37 57 -47 67 -10 10 -18 21 -16 23 2 4 -39 60 -61 83 -7 7 -11 13 -7 13 6
0 -5 15 -37 50 -9 10 -14 21 -11 23 3 3 -4 12 -16 19 -12 7 -21 18 -21 23 0 6
-16 28 -35 49 -19 21 -35 41 -35 45 0 3 -16 23 -36 44 -19 20 -33 37 -30 37 3
0 -2 8 -11 19 -10 10 -29 33 -43 52 -14 18 -38 47 -55 64 -16 17 -48 53 -70
80 -67 85 -316 342 -365 378 -14 10 -18 15 -10 12 8 -3 7 0 -3 7 -10 7 -41 34
-68 61 -28 26 -55 47 -60 47 -6 0 -7 5 -4 10 3 6 3 10 -2 10 -4 0 -22 14 -40
30 -18 17 -36 30 -41 30 -5 0 -17 11 -26 25 -9 14 -24 25 -33 25 -9 0 -14 3
-10 6 6 6 -73 75 -124 107 -16 11 -29 23 -29 29 0 5 -4 7 -9 4 -5 -3 -11 1
-15 9 -3 8 -12 15 -20 15 -7 0 -16 7 -20 15 -3 8 -10 15 -16 15 -6 0 -22 12
-35 26 -14 15 -25 24 -25 20 0 -4 -7 0 -16 9 -9 8 -42 34 -74 55 -33 22 -62
44 -65 50 -4 6 -10 8 -15 5 -4 -3 -11 2 -14 11 -3 8 -10 12 -16 9 -5 -3 -10
-2 -10 2 0 9 -210 153 -223 153 -3 0 -32 17 -64 38 -32 21 -73 44 -91 52 -19
7 -39 18 -45 24 -7 6 -25 20 -41 30 -41 26 -396 206 -396 201 0 -3 -15 4 -32
15 -54 33 -182 90 -202 90 -8 0 -17 4 -21 9 -3 5 -19 12 -35 16 -17 4 -30 10
-30 14 0 4 -22 14 -50 21 -27 7 -50 17 -50 22 0 4 -6 8 -13 8 -6 0 -62 20
-122 45 -61 25 -118 45 -127 45 -15 0 -17 -17 -16 -187z"/>
<path d="M1919 10165 c-3 -2 -159 -5 -347 -5 -287 -1 -342 -3 -342 -15 0 -8
-8 -22 -18 -32 -27 -27 -85 -103 -78 -103 3 0 -1 -8 -9 -17 -30 -37 -86 -119
-102 -150 -9 -18 -20 -33 -25 -33 -4 0 -8 -7 -8 -15 0 -8 -4 -15 -9 -15 -5 0
-11 -8 -15 -17 -3 -10 -19 -38 -36 -63 -34 -53 -81 -139 -78 -143 2 -1 -7 -14
-20 -27 -12 -14 -25 -35 -28 -47 -4 -13 -9 -23 -13 -23 -3 0 -12 -15 -20 -32
-8 -18 -31 -64 -53 -101 -21 -38 -38 -75 -38 -83 0 -8 -4 -14 -9 -14 -8 0 -22
-28 -26 -50 0 -3 -7 -16 -15 -30 -38 -68 -59 -114 -54 -122 3 -4 1 -8 -4 -8
-6 0 -13 -12 -17 -27 -3 -15 -11 -30 -16 -34 -6 -3 -11 -16 -12 -27 -1 -12 -4
-22 -8 -22 -4 0 -13 -20 -20 -45 -7 -25 -17 -45 -21 -45 -4 0 -8 -7 -8 -14 0
-8 -18 -56 -40 -107 -22 -50 -37 -95 -35 -100 3 -4 1 -10 -5 -14 -9 -6 -30
-70 -29 -89 0 -5 -4 -12 -10 -15 -6 -4 -13 -18 -15 -31 -2 -14 -5 -26 -7 -27
-1 -2 -2 -6 -4 -10 -1 -5 -5 -16 -9 -25 -4 -9 -8 -22 -10 -30 -1 -7 -4 -17 -7
-23 -6 -10 -22 -61 -24 -80 -1 -5 -7 -22 -13 -37 -6 -15 -13 -38 -15 -50 -2
-13 -9 -36 -15 -51 -7 -15 -15 -42 -18 -60 -7 -40 -10 -48 -17 -67 -7 -15 -27
-98 -33 -135 -1 -11 -5 -29 -8 -40 -3 -11 -14 -59 -25 -108 -17 -81 -20 -93
-22 -99 0 -2 -2 -12 -4 -23 -2 -11 -7 -36 -11 -55 -4 -19 -8 -46 -8 -60 -1
-14 -5 -30 -9 -37 -4 -6 -9 -36 -12 -67 -3 -30 -9 -74 -14 -98 -9 -41 -19
-111 -27 -201 -2 -23 -8 -76 -13 -117 -10 -79 -8 -1079 2 -1191 3 -36 9 -81
12 -100 4 -19 9 -52 11 -74 2 -22 6 -56 8 -75 2 -19 5 -35 6 -35 1 0 3 -16 5
-35 5 -58 15 -124 21 -140 3 -8 7 -33 10 -55 2 -22 9 -53 15 -68 7 -15 9 -30
6 -33 -3 -3 -1 -20 4 -37 6 -18 12 -45 15 -62 2 -16 11 -57 19 -90 19 -73 22
-87 34 -150 5 -27 18 -75 27 -105 9 -30 18 -62 20 -70 5 -28 36 -135 42 -145
4 -5 8 -17 9 -26 5 -30 75 -234 84 -244 5 -5 9 -19 9 -32 0 -13 4 -23 10 -23
5 0 9 -3 8 -7 -4 -17 14 -73 23 -73 6 0 8 -4 5 -8 -2 -4 5 -28 16 -52 12 -25
22 -51 24 -58 1 -8 14 -37 28 -66 14 -29 26 -60 26 -69 0 -10 5 -17 11 -17 5
0 7 -4 4 -10 -3 -5 -1 -10 4 -10 6 0 10 -3 9 -7 -3 -15 14 -63 23 -63 5 0 9
-7 9 -16 0 -9 9 -33 20 -53 10 -20 43 -85 72 -145 68 -141 71 -146 80 -146 5
0 8 -9 8 -20 0 -11 5 -20 10 -20 6 0 10 -6 10 -14 0 -7 9 -25 21 -40 11 -14
18 -26 15 -26 -6 0 17 -44 67 -128 17 -28 35 -52 40 -52 4 0 6 -4 3 -9 -3 -5
1 -14 9 -21 8 -7 15 -18 15 -26 0 -7 14 -29 31 -49 17 -19 28 -35 25 -35 -8 0
66 -111 89 -133 8 -9 15 -20 15 -26 0 -6 9 -20 20 -31 11 -11 17 -20 13 -20
-3 0 4 -9 17 -20 13 -11 19 -20 15 -20 -5 0 0 -7 11 -15 10 -8 16 -15 12 -15
-7 0 17 -32 50 -66 6 -7 12 -15 12 -18 0 -9 71 -100 84 -108 6 -4 8 -8 4 -8
-5 0 0 -8 10 -18 9 -11 33 -38 51 -62 19 -23 41 -48 48 -56 7 -7 13 -17 13
-23 0 -5 6 -14 13 -18 7 -4 23 -21 36 -38 44 -57 146 -171 243 -268 54 -55 98
-103 98 -108 0 -5 5 -9 10 -9 13 0 70 -57 70 -69 0 -5 10 -16 22 -24 13 -8 49
-40 81 -71 32 -31 60 -56 62 -56 1 0 23 -19 47 -43 56 -52 104 -94 147 -127
18 -14 47 -37 64 -52 18 -15 35 -28 39 -28 4 0 18 -11 32 -25 14 -14 29 -25
34 -25 6 0 12 -7 16 -15 3 -8 11 -15 18 -15 7 0 19 -9 26 -21 7 -12 16 -19 18
-16 3 3 16 -5 29 -17 37 -34 55 -47 55 -41 0 3 12 -6 27 -20 15 -14 33 -25 39
-25 7 0 14 -7 18 -15 3 -8 12 -15 20 -15 8 0 16 -3 18 -7 5 -12 83 -63 96 -63
7 0 12 -5 12 -10 0 -6 12 -16 28 -23 15 -6 31 -17 35 -24 5 -8 12 -11 17 -8 4
3 10 -2 14 -10 3 -8 14 -15 25 -15 10 0 22 -7 25 -16 3 -8 10 -12 16 -9 5 3
10 2 10 -4 0 -5 10 -13 22 -17 12 -3 30 -15 41 -25 11 -10 24 -16 29 -13 4 3
8 0 8 -5 0 -6 6 -11 14 -11 8 0 16 -4 18 -8 2 -4 28 -20 58 -36 81 -41 154
-80 160 -86 15 -15 108 -59 114 -53 3 3 6 1 6 -6 0 -7 4 -10 9 -6 5 3 16 0 23
-7 21 -19 58 -39 81 -44 11 -2 23 -7 26 -12 3 -4 22 -14 41 -22 19 -7 70 -30
113 -51 42 -21 79 -39 82 -39 3 0 26 -10 52 -21 27 -12 53 -22 58 -23 6 -2 24
-8 40 -15 17 -7 59 -23 95 -37 36 -14 75 -29 88 -34 13 -6 32 -10 42 -10 11 0
20 -4 20 -8 0 -4 12 -9 26 -10 15 -1 32 -6 39 -12 6 -5 15 -7 18 -3 4 3 7 1 7
-5 0 -7 5 -12 10 -12 7 0 10 375 9 1121 -2 910 -5 1123 -15 1132 -33 30 -44
37 -54 37 -5 0 -10 5 -10 10 0 6 -5 10 -10 10 -6 0 -22 8 -37 17 -14 10 -32
18 -39 19 -8 1 -30 16 -51 33 -21 17 -43 31 -49 31 -7 0 -14 3 -16 8 -4 9
-107 72 -119 72 -5 0 -9 4 -9 8 0 5 -16 17 -35 28 -19 10 -35 22 -35 26 0 5
-7 8 -15 8 -8 0 -15 4 -15 9 0 11 -95 81 -110 81 -6 0 -10 4 -10 9 0 5 -36 37
-81 72 -45 35 -92 74 -106 86 -13 13 -29 23 -34 23 -6 0 -7 5 -4 10 3 6 1 10
-6 10 -7 0 -61 49 -120 110 -58 60 -109 107 -113 103 -3 -3 -6 -1 -6 7 0 7
-22 36 -49 64 -101 105 -131 139 -131 149 0 6 -3 7 -7 4 -3 -4 -11 2 -17 12
-18 31 -190 256 -198 259 -4 2 -8 9 -8 16 0 6 -13 27 -30 46 -16 19 -29 41
-30 48 0 6 -4 12 -10 12 -5 0 -9 3 -8 8 3 10 -52 102 -62 102 -4 0 -11 11 -14
25 -4 14 -11 25 -16 25 -6 0 -10 9 -10 20 0 11 -3 20 -8 20 -4 0 -15 17 -24
39 -9 21 -23 45 -30 52 -7 8 -24 38 -38 66 -14 29 -29 53 -33 53 -5 0 -5 5 -2
10 3 6 1 10 -5 10 -6 0 -8 5 -5 10 3 5 1 10 -5 10 -6 0 -8 4 -5 10 3 5 1 10
-5 10 -6 0 -8 4 -5 10 3 6 1 10 -5 10 -6 0 -8 5 -5 10 3 6 2 10 -3 10 -5 0 -9
6 -9 13 0 6 -17 48 -38 92 -21 44 -38 83 -37 88 1 4 -2 7 -7 7 -5 0 -12 15
-15 33 -3 17 -19 61 -36 95 -16 35 -30 68 -30 72 0 5 -5 21 -12 37 -6 15 -12
31 -13 36 -2 4 -3 8 -5 10 -1 1 -3 9 -5 17 -2 8 -8 31 -13 50 -5 19 -17 52
-26 74 -9 21 -16 48 -16 61 0 12 -3 25 -7 29 -5 4 -9 12 -9 17 -1 5 -3 12 -4
17 -1 4 -3 12 -4 17 -9 47 -20 92 -24 99 -3 6 -7 19 -8 30 -2 22 -11 61 -14
61 -1 0 -3 11 -5 25 -2 14 -6 39 -10 55 -5 26 -17 93 -30 175 -10 59 -28 208
-30 245 -1 22 -6 92 -10 155 -11 176 -8 352 10 625 5 72 12 128 36 282 12 76
22 149 24 163 1 14 5 32 9 40 3 8 8 33 10 55 3 22 5 40 6 40 2 0 9 33 15 65 2
14 4 25 5 25 1 0 3 9 5 20 5 26 10 46 18 65 4 8 8 24 10 35 2 11 8 30 15 41 6
12 9 24 5 27 -3 4 -1 12 4 19 10 12 32 75 37 101 1 7 7 22 14 33 6 12 9 24 5
27 -3 4 -1 12 4 19 11 14 43 93 48 118 2 8 10 28 19 44 8 16 13 33 10 38 -3 4
-1 8 4 8 6 0 16 20 23 45 7 25 17 45 21 45 4 0 8 7 8 15 0 8 31 75 69 150 39
74 68 135 65 135 -3 0 2 7 10 16 9 8 14 20 11 25 -4 5 -1 9 4 9 6 0 11 7 11
15 0 8 5 15 10 15 6 0 10 9 10 20 0 11 4 20 9 20 5 0 15 16 22 35 7 19 16 35
20 35 4 0 12 14 18 30 5 17 15 30 20 30 6 0 11 4 11 9 0 6 14 30 30 54 17 25
30 47 30 50 0 3 11 18 25 33 14 15 25 32 25 39 0 7 10 23 23 37 42 48 57 68
49 68 -4 0 1 5 11 11 9 5 17 14 17 18 0 5 16 26 35 47 19 21 35 42 35 46 0 4
20 29 45 56 25 26 45 50 45 54 0 4 16 22 35 39 19 18 35 36 35 40 0 17 354
357 381 367 5 2 7 8 3 13 -3 5 0 9 7 9 11 0 28 14 89 70 15 14 39 31 53 39 14
8 24 18 21 23 -3 4 2 8 11 8 8 0 18 7 21 15 4 8 13 15 20 15 8 0 17 7 20 15 4
8 10 13 14 10 5 -3 15 4 23 15 7 11 17 17 20 14 4 -4 9 1 13 10 3 9 10 14 14
11 5 -3 15 3 22 12 16 21 60 53 108 78 30 15 56 33 107 75 7 6 17 10 24 10 10
0 66 35 79 50 3 3 22 14 43 24 20 11 37 22 37 26 0 14 -2377 30 -2391 15z"/>
</g>
</svg>
