<?xml version="1.0" standalone="no"?>
<!DOCTYPE svg PUBLIC "-//W3C//DTD SVG 20010904//EN"
 "http://www.w3.org/TR/2001/REC-SVG-20010904/DTD/svg10.dtd">
<svg version="1.0" xmlns="http://www.w3.org/2000/svg"
 width="577.000000pt" height="411.000000pt" viewBox="0 0 577.000000 411.000000"
 preserveAspectRatio="xMidYMid meet">
<g transform="translate(0.000000,411.000000) scale(0.100000,-0.100000)"
fill="#000000" stroke="none">
<path d="M1935 4089 c-539 -13 -1225 -73 -1302 -113 -18 -9 -45 -16 -60 -16
-15 0 -43 -9 -61 -20 -18 -11 -39 -20 -47 -20 -8 0 -19 -9 -25 -20 -6 -11 -17
-20 -25 -20 -8 0 -25 -10 -37 -22 -13 -13 -32 -28 -43 -33 -11 -6 -25 -21 -31
-34 -7 -12 -27 -39 -46 -59 -20 -21 -38 -44 -42 -52 -7 -16 -18 -35 -54 -92
-13 -20 -27 -59 -31 -85 -5 -26 -18 -73 -30 -104 -32 -88 -70 -449 -92 -869
-13 -269 -8 -909 9 -1070 6 -58 16 -186 22 -285 20 -356 70 -571 162 -710 18
-27 38 -57 44 -67 23 -38 100 -116 131 -132 18 -9 33 -20 33 -25 0 -5 12 -12
26 -15 14 -4 42 -18 63 -32 77 -50 226 -84 446 -99 50 -4 161 -15 249 -26 114
-14 162 -17 171 -9 9 8 38 8 97 1 226 -28 469 -34 1358 -35 922 -1 1076 3
1680 39 287 18 441 36 600 71 136 30 180 48 238 97 24 21 47 37 51 37 6 0 71
63 113 110 33 36 119 202 143 274 70 219 134 1045 121 1566 -13 471 -78 1137
-120 1218 -9 17 -16 43 -16 58 0 30 -67 174 -81 174 -5 0 -17 17 -28 38 -24
46 -86 112 -105 112 -8 0 -17 8 -20 18 -15 45 -225 140 -381 171 -99 19 -374
38 -900 61 -636 28 -1528 36 -2180 19z m453 -1249 c7 -12 23 -20 41 -20 17 0
31 -6 35 -15 3 -8 16 -20 28 -26 37 -17 114 -60 273 -153 83 -49 219 -125 302
-168 84 -44 156 -85 160 -92 5 -7 31 -24 58 -38 83 -42 162 -86 218 -122 30
-19 98 -57 151 -84 l98 -49 -44 -36 c-25 -21 -52 -37 -61 -37 -9 0 -22 -9 -29
-20 -7 -11 -23 -20 -35 -20 -13 0 -42 -13 -65 -30 -22 -16 -47 -30 -54 -30 -7
0 -17 -6 -21 -13 -4 -8 -35 -26 -68 -42 -33 -15 -64 -34 -68 -41 -4 -7 -28
-22 -52 -33 -24 -11 -64 -33 -89 -50 -25 -17 -51 -31 -59 -31 -8 0 -20 -7 -27
-15 -7 -8 -45 -31 -86 -50 -40 -19 -75 -39 -78 -44 -3 -5 -36 -23 -73 -41 -38
-18 -71 -38 -75 -45 -4 -7 -29 -20 -55 -30 -26 -10 -73 -34 -103 -54 -68 -43
-106 -65 -147 -85 -17 -9 -34 -20 -38 -26 -3 -5 -15 -10 -26 -10 -10 0 -24 -9
-31 -20 -22 -35 -36 -23 -44 38 -14 100 -10 1150 4 1347 7 99 15 186 17 193 6
18 29 14 43 -8z"/>
</g>
</svg>
