<?xml version="1.0" encoding="UTF-8"?>
<!DOCTYPE svg PUBLIC "-//W3C//DTD SVG 1.1//EN" "http://www.w3.org/Graphics/SVG/1.1/DTD/svg11.dtd">
<svg xmlns="http://www.w3.org/2000/svg" version="1.1" width="302px" height="270px" style="shape-rendering:geometricPrecision; text-rendering:geometricPrecision; image-rendering:optimizeQuality; fill-rule:evenodd; clip-rule:evenodd" xmlns:xlink="http://www.w3.org/1999/xlink">
<g><path style="opacity:1" fill="#040404" d="M 215.5,13.5 C 214.883,13.3893 214.383,13.056 214,12.5C 212.647,14.4336 211.147,16.2669 209.5,18C 210.38,19.3561 210.714,20.8561 210.5,22.5C 209.577,21.6971 208.577,21.5304 207.5,22C 204.124,26.5817 201.124,31.415 198.5,36.5C 199.63,37.6223 200.297,38.9557 200.5,40.5C 198.403,40.0033 196.57,39.67 195,39.5C 194.383,40.4491 194.549,41.2825 195.5,42C 193.798,44.2354 192.798,46.7354 192.5,49.5C 191.5,49.5 190.5,49.5 189.5,49.5C 189.313,51.5643 188.813,53.5643 188,55.5C 185.083,59.6661 182.416,63.9994 180,68.5C 179.82,70.4884 179.986,72.4884 180.5,74.5C 179.25,74.4226 178.417,73.756 178,72.5C 168.753,86.9085 160.253,101.742 152.5,117C 153.823,117.816 154.489,118.983 154.5,120.5C 151.598,122.115 149.265,121.449 147.5,118.5C 147.573,116.973 146.906,115.973 145.5,115.5C 145.5,115.167 145.5,114.833 145.5,114.5C 145.573,112.973 144.906,111.973 143.5,111.5C 141.422,109.61 140.089,107.276 139.5,104.5C 139.433,102.599 139.767,100.766 140.5,99C 134.265,88.0441 127.432,76.2107 120,63.5C 118.855,63.6191 117.688,63.9524 116.5,64.5C 115.662,64.1583 115.328,63.4916 115.5,62.5C 115.369,61.6236 115.702,60.9569 116.5,60.5C 117.396,61.5063 118.062,61.5063 118.5,60.5C 115.721,59.3265 115.054,57.4932 116.5,55C 115,53.8333 113.5,52.6667 112,51.5C 111.048,47.2236 109.215,43.3903 106.5,40C 106.833,39.6667 107.167,39.3333 107.5,39C 103.964,34.7628 100.798,30.2628 98,25.5C 97.3828,26.4491 97.5494,27.2825 98.5,28C 97.552,28.4828 96.552,28.6495 95.5,28.5C 95.8432,26.5168 95.1765,25.1834 93.5,24.5C 93.8432,22.5168 93.1765,21.1834 91.5,20.5C 88.5298,16.6803 85.6964,12.6803 83,8.5C 82.3131,6.07971 82.8131,3.91304 84.5,2C 128.833,1.33333 173.167,1.33333 217.5,2C 220.592,6.5331 219.925,10.3664 215.5,13.5 Z"/></g>
<g><path style="opacity:0.039" fill="#bababa" d="M 233.5,11.5 C 235.027,11.427 236.027,12.0937 236.5,13.5C 234.973,13.573 233.973,12.9063 233.5,11.5 Z"/></g>
<g><path style="opacity:0.953" fill="#444444" d="M 215.5,13.5 C 215.649,14.552 215.483,15.552 215,16.5C 212.837,18.1413 211.337,20.1413 210.5,22.5C 210.714,20.8561 210.38,19.3561 209.5,18C 211.147,16.2669 212.647,14.4336 214,12.5C 214.383,13.056 214.883,13.3893 215.5,13.5 Z"/></g>
<g><path style="opacity:0.247" fill="#b9b9b9" d="M 229.5,11.5 C 229.5,12.8333 228.833,13.5 227.5,13.5C 227.833,12.5 228.5,11.8333 229.5,11.5 Z"/></g>
<g><path style="opacity:1" fill="#010101" d="M 254.5,44.5 C 253.77,45.7124 252.77,46.7124 251.5,47.5C 254.333,52.5 257.167,57.5 260,62.5C 261.356,61.6198 262.856,61.2865 264.5,61.5C 264.157,63.4832 264.824,64.8166 266.5,65.5C 266.157,67.4832 266.824,68.8166 268.5,69.5C 270.256,71.249 271.589,73.249 272.5,75.5C 272.157,77.4832 272.824,78.8166 274.5,79.5C 274.62,81.7345 274.287,83.9011 273.5,86C 276.281,91.7288 279.447,97.2288 283,102.5C 283.422,100.574 284.589,99.5743 286.5,99.5C 286.5,99.8333 286.5,100.167 286.5,100.5C 286.285,102.179 286.952,103.179 288.5,103.5C 288.157,105.483 288.824,106.817 290.5,107.5C 290.157,109.483 290.824,110.817 292.5,111.5C 293.5,111.833 294.167,112.5 294.5,113.5C 294.157,115.483 294.824,116.817 296.5,117.5C 297.906,117.973 298.573,118.973 298.5,120.5C 298.285,122.179 298.952,123.179 300.5,123.5C 300.5,125.167 300.5,126.833 300.5,128.5C 254.833,128.5 209.167,128.5 163.5,128.5C 163.5,127.5 163.5,126.5 163.5,125.5C 163.66,123.847 164.326,122.514 165.5,121.5C 167.176,120.817 167.843,119.483 167.5,117.5C 168.325,115.19 169.658,113.19 171.5,111.5C 173.048,111.179 173.715,110.179 173.5,108.5C 175.104,107.713 175.771,106.38 175.5,104.5C 176.167,103.167 176.833,101.833 177.5,100.5C 178.906,100.027 179.573,99.0269 179.5,97.5C 181.176,96.8166 181.843,95.4832 181.5,93.5C 183.048,93.1788 183.715,92.1788 183.5,90.5C 183.5,89.8333 183.833,89.5 184.5,89.5C 185.117,89.6107 185.617,89.944 186,90.5C 186.739,88.7795 187.573,87.1128 188.5,85.5C 188.351,87.3901 188.351,89.3901 188.5,91.5C 198.397,73.3752 208.564,55.3752 219,37.5C 220.205,36.9288 221.372,36.2621 222.5,35.5C 221.833,35.1667 221.167,34.8333 220.5,34.5C 222.667,30.8333 224.833,27.1667 227,23.5C 228.281,23.6192 229.448,23.1192 230.5,22C 229.692,21.6924 229.025,21.1924 228.5,20.5C 230.392,17.1897 232.559,16.8564 235,19.5C 238.419,24.6682 241.585,30.0016 244.5,35.5C 243.674,36.451 243.508,37.451 244,38.5C 244.333,38.1667 244.667,37.8333 245,37.5C 246.658,40.1608 248.324,42.8275 250,45.5C 250.419,44.3279 251.085,43.3279 252,42.5C 252.417,43.756 253.25,44.4226 254.5,44.5 Z"/></g>
<g><path style="opacity:1" fill="#010101" d="M 76.5,15.5 C 76.5858,16.4959 76.2524,17.3292 75.5,18C 76.1667,18.3333 76.8333,18.6667 77.5,19C 76.5,19.8333 75.5,20.6667 74.5,21.5C 78.8659,28.1177 82.3659,35.1177 85,42.5C 88.777,46.2801 91.777,50.6135 94,55.5C 94.6924,54.9747 95.1924,54.3081 95.5,53.5C 92.5819,49.485 92.9152,48.485 96.5,50.5C 96.2852,52.1788 96.9519,53.1788 98.5,53.5C 98.5,54.8333 98.5,56.1667 98.5,57.5C 97.7784,57.0825 97.2784,56.4158 97,55.5C 95.7592,56.9375 95.2592,58.4375 95.5,60C 97,60.8333 98.1667,62 99,63.5C 105.823,75.6301 112.157,86.9634 118,97.5C 120.43,101.392 122.93,105.058 125.5,108.5C 125.369,109.239 125.536,109.906 126,110.5C 127.388,110.786 128.888,110.452 130.5,109.5C 130.657,110.873 130.49,112.207 130,113.5C 129.549,111.071 128.715,110.904 127.5,113C 128.85,114.718 130.017,116.552 131,118.5C 131.759,116.937 132.926,115.937 134.5,115.5C 134.157,117.483 134.824,118.817 136.5,119.5C 136.427,121.027 137.094,122.027 138.5,122.5C 138.5,124.5 138.5,126.5 138.5,128.5C 93.8333,128.5 49.1667,128.5 4.5,128.5C 1.75236,128.598 1.0857,127.598 2.5,125.5C 3.43448,124.432 3.76781,123.099 3.5,121.5C 5.17649,120.817 5.84316,119.483 5.5,117.5C 5.83333,116.5 6.5,115.833 7.5,115.5C 9.17649,114.817 9.84316,113.483 9.5,111.5C 10.8333,111.5 11.5,110.833 11.5,109.5C 13.1765,108.817 13.8432,107.483 13.5,105.5C 14.1667,105.5 14.8333,105.5 15.5,105.5C 16.7927,106.645 17.9593,106.311 19,104.5C 20.113,103.24 20.2797,102.073 19.5,101C 22.3946,98.527 25.0613,95.8604 27.5,93C 27.1667,92.6667 26.8333,92.3333 26.5,92C 29.0674,87.6983 31.2341,83.1983 33,78.5C 35.2033,78.761 37.37,78.261 39.5,77C 38.5,76.1667 37.5,75.3333 36.5,74.5C 38.1288,70.3782 40.7955,67.2115 44.5,65C 43.1102,62.0062 44.1102,60.0062 47.5,59C 46.8333,58 46.1667,57 45.5,56C 48.8333,53.3333 51.8333,50.3333 54.5,47C 54.0426,46.586 53.7093,46.086 53.5,45.5C 57.1667,38.8333 60.8333,32.1667 64.5,25.5C 63.1091,23.0642 63.6091,22.3975 66,23.5C 66.9432,20.5999 68.6099,18.2666 71,16.5C 71.6891,17.3567 72.5224,18.0233 73.5,18.5C 74.1411,17.0065 75.1411,16.0065 76.5,15.5 Z"/></g>
<g><path style="opacity:0.431" fill="#ababab" d="M 63.5,18.5 C 63.7148,20.1788 63.0481,21.1788 61.5,21.5C 61.9321,20.2905 62.5987,19.2905 63.5,18.5 Z"/></g>
<g><path style="opacity:0.114" fill="#c4c4c4" d="M 225.5,17.5 C 225.771,19.3797 225.104,20.713 223.5,21.5C 223.66,19.847 224.326,18.5137 225.5,17.5 Z"/></g>
<g><path style="opacity:0.176" fill="#a3a3a3" d="M 91.5,20.5 C 93.1765,21.1834 93.8432,22.5168 93.5,24.5C 92.6554,23.3285 91.9887,21.9952 91.5,20.5 Z"/></g>
<g><path style="opacity:0.392" fill="#b9b9b9" d="M 223.5,21.5 C 223.843,23.4832 223.176,24.8166 221.5,25.5C 221.989,24.0048 222.655,22.6715 223.5,21.5 Z"/></g>
<g><path style="opacity:0.263" fill="#b1b1b1" d="M 93.5,24.5 C 95.1765,25.1834 95.8432,26.5168 95.5,28.5C 94.3263,27.4863 93.6596,26.153 93.5,24.5 Z"/></g>
<g><path style="opacity:0.227" fill="#b0b0b0" d="M 82.5,26.5 C 83.4013,27.2905 84.0679,28.2905 84.5,29.5C 82.9519,29.1788 82.2852,28.1788 82.5,26.5 Z"/></g>
<g><path style="opacity:0.214" fill="#a5a5a5" d="M 244.5,27.5 C 245.345,28.6715 246.011,30.0048 246.5,31.5C 244.824,30.8166 244.157,29.4832 244.5,27.5 Z"/></g>
<g><path style="opacity:0.947" fill="#2b2b2b" d="M 210.5,22.5 C 207.531,28.7768 204.198,34.7768 200.5,40.5C 200.297,38.9557 199.63,37.6223 198.5,36.5C 201.124,31.415 204.124,26.5817 207.5,22C 208.577,21.5304 209.577,21.6971 210.5,22.5 Z"/></g>
<g><path style="opacity:0.345" fill="#aeaeae" d="M 219.5,28.5 C 219.715,30.1788 219.048,31.1788 217.5,31.5C 217.932,30.2905 218.599,29.2905 219.5,28.5 Z"/></g>
<g><path style="opacity:0.478" fill="#b4b4b4" d="M 55.5,31.5 C 55.8432,33.4832 55.1765,34.8166 53.5,35.5C 53.9887,34.0048 54.6554,32.6715 55.5,31.5 Z"/></g>
<g><path style="opacity:0.251" fill="#9d9d9d" d="M 248.5,34.5 C 249.401,35.2905 250.068,36.2905 250.5,37.5C 248.952,37.1788 248.285,36.1788 248.5,34.5 Z"/></g>
<g><path style="opacity:0.939" fill="#282828" d="M 115.5,62.5 C 111.797,57.0661 108.464,51.3994 105.5,45.5C 105.715,43.8212 105.048,42.8212 103.5,42.5C 103.715,40.8212 103.048,39.8212 101.5,39.5C 99.4668,35.8134 97.4668,32.1468 95.5,28.5C 96.552,28.6495 97.552,28.4828 98.5,28C 97.5494,27.2825 97.3828,26.4491 98,25.5C 100.798,30.2628 103.964,34.7628 107.5,39C 107.167,39.3333 106.833,39.6667 106.5,40C 109.215,43.3903 111.048,47.2236 112,51.5C 113.5,52.6667 115,53.8333 116.5,55C 115.054,57.4932 115.721,59.3265 118.5,60.5C 118.062,61.5063 117.396,61.5063 116.5,60.5C 115.702,60.9569 115.369,61.6236 115.5,62.5 Z"/></g>
<g><path style="opacity:0.145" fill="#a5a5a5" d="M 250.5,37.5 C 251.345,38.6715 252.011,40.0048 252.5,41.5C 250.824,40.8166 250.157,39.4832 250.5,37.5 Z"/></g>
<g><path style="opacity:0.22" fill="#cecece" d="M 101.5,39.5 C 103.048,39.8212 103.715,40.8212 103.5,42.5C 102.599,41.7095 101.932,40.7095 101.5,39.5 Z"/></g>
<g><path style="opacity:0.141" fill="#a8a8a8" d="M 90.5,39.5 C 91.3446,40.6715 92.0113,42.0048 92.5,43.5C 90.8235,42.8166 90.1568,41.4832 90.5,39.5 Z"/></g>
<g><path style="opacity:0.794" fill="#212121" d="M 76.5,15.5 C 75.1411,16.0065 74.1411,17.0065 73.5,18.5C 72.5224,18.0233 71.6891,17.3567 71,16.5C 68.6099,18.2666 66.9432,20.5999 66,23.5C 63.6091,22.3975 63.1091,23.0642 64.5,25.5C 60.8333,32.1667 57.1667,38.8333 53.5,45.5C 53.7093,46.086 54.0426,46.586 54.5,47C 51.8333,50.3333 48.8333,53.3333 45.5,56C 46.1667,57 46.8333,58 47.5,59C 44.1102,60.0062 43.1102,62.0062 44.5,65C 40.7955,67.2115 38.1288,70.3782 36.5,74.5C 37.5,75.3333 38.5,76.1667 39.5,77C 37.37,78.261 35.2033,78.761 33,78.5C 31.2341,83.1983 29.0674,87.6983 26.5,92C 26.8333,92.3333 27.1667,92.6667 27.5,93C 25.0613,95.8604 22.3946,98.527 19.5,101C 20.2797,102.073 20.113,103.24 19,104.5C 17.9593,106.311 16.7927,106.645 15.5,105.5C 15.5,104.167 15.5,102.833 15.5,101.5C 17.1765,100.817 17.8432,99.4832 17.5,97.5C 18.3446,96.3285 19.0113,94.9952 19.5,93.5C 21.0481,93.1788 21.7148,92.1788 21.5,90.5C 21.9321,89.2905 22.5987,88.2905 23.5,87.5C 25.0481,87.1788 25.7148,86.1788 25.5,84.5C 27.1155,82.262 28.4488,79.9287 29.5,77.5C 31.0481,77.1788 31.7148,76.1788 31.5,74.5C 31.5,74.1667 31.5,73.8333 31.5,73.5C 33.0481,73.1788 33.7148,72.1788 33.5,70.5C 36.8386,64.793 40.1719,59.1263 43.5,53.5C 45.1765,52.8166 45.8432,51.4832 45.5,49.5C 48.1528,44.8654 50.8195,40.1987 53.5,35.5C 55.1765,34.8166 55.8432,33.4832 55.5,31.5C 57.5371,28.1431 59.5371,24.8097 61.5,21.5C 63.0481,21.1788 63.7148,20.1788 63.5,18.5C 65.1449,14.855 67.8116,12.1884 71.5,10.5C 73.8407,11.5339 75.5074,13.2006 76.5,15.5 Z"/></g>
<g><path style="opacity:1" fill="#252525" d="M 76.5,15.5 C 79.2604,18.6827 81.2604,22.3494 82.5,26.5C 82.2852,28.1788 82.9519,29.1788 84.5,29.5C 86.8224,32.5231 88.8224,35.8564 90.5,39.5C 90.1568,41.4832 90.8235,42.8166 92.5,43.5C 92.1568,45.4832 92.8235,46.8166 94.5,47.5C 95.9063,47.9731 96.573,48.9731 96.5,50.5C 92.9152,48.485 92.5819,49.485 95.5,53.5C 95.1924,54.3081 94.6924,54.9747 94,55.5C 91.777,50.6135 88.777,46.2801 85,42.5C 82.3659,35.1177 78.8659,28.1177 74.5,21.5C 75.5,20.6667 76.5,19.8333 77.5,19C 76.8333,18.6667 76.1667,18.3333 75.5,18C 76.2524,17.3292 76.5858,16.4959 76.5,15.5 Z"/></g>
<g><path style="opacity:0.976" fill="#1e1e1e" d="M 233.5,11.5 C 233.973,12.9063 234.973,13.573 236.5,13.5C 239.691,17.8838 242.358,22.5504 244.5,27.5C 244.157,29.4832 244.824,30.8166 246.5,31.5C 247.906,31.9731 248.573,32.9731 248.5,34.5C 248.285,36.1788 248.952,37.1788 250.5,37.5C 250.157,39.4832 250.824,40.8166 252.5,41.5C 253.401,42.2905 254.068,43.2905 254.5,44.5C 253.25,44.4226 252.417,43.756 252,42.5C 251.085,43.3279 250.419,44.3279 250,45.5C 248.324,42.8275 246.658,40.1608 245,37.5C 244.667,37.8333 244.333,38.1667 244,38.5C 243.508,37.451 243.674,36.451 244.5,35.5C 241.585,30.0016 238.419,24.6682 235,19.5C 232.559,16.8564 230.392,17.1897 228.5,20.5C 229.025,21.1924 229.692,21.6924 230.5,22C 229.448,23.1192 228.281,23.6192 227,23.5C 224.833,27.1667 222.667,30.8333 220.5,34.5C 221.167,34.8333 221.833,35.1667 222.5,35.5C 221.372,36.2621 220.205,36.9288 219,37.5C 208.564,55.3752 198.397,73.3752 188.5,91.5C 188.351,89.3901 188.351,87.3901 188.5,85.5C 187.573,87.1128 186.739,88.7795 186,90.5C 185.617,89.944 185.117,89.6107 184.5,89.5C 189.797,79.2601 195.464,69.2601 201.5,59.5C 203.048,59.1788 203.715,58.1788 203.5,56.5C 203.5,56.1667 203.5,55.8333 203.5,55.5C 205.048,55.1788 205.715,54.1788 205.5,52.5C 207.104,51.713 207.771,50.3797 207.5,48.5C 210.612,42.5955 213.945,36.9289 217.5,31.5C 219.048,31.1788 219.715,30.1788 219.5,28.5C 219.932,27.2905 220.599,26.2905 221.5,25.5C 223.176,24.8166 223.843,23.4832 223.5,21.5C 225.104,20.713 225.771,19.3797 225.5,17.5C 226.167,16.1667 226.833,14.8333 227.5,13.5C 228.833,13.5 229.5,12.8333 229.5,11.5C 230.833,10.1667 232.167,10.1667 233.5,11.5 Z"/></g>
<g><path style="opacity:0.22" fill="#a7a7a7" d="M 92.5,43.5 C 93.3446,44.6715 94.0113,46.0048 94.5,47.5C 92.8235,46.8166 92.1568,45.4832 92.5,43.5 Z"/></g>
<g><path style="opacity:0.106" fill="#aaaaaa" d="M 103.5,42.5 C 105.048,42.8212 105.715,43.8212 105.5,45.5C 104.599,44.7095 103.932,43.7095 103.5,42.5 Z"/></g>
<g><path style="opacity:0.954" fill="#212121" d="M 254.5,44.5 C 255.345,45.6715 256.011,47.0048 256.5,48.5C 256.285,50.1788 256.952,51.1788 258.5,51.5C 258.157,53.4832 258.824,54.8166 260.5,55.5C 262.316,57.1184 263.649,59.1184 264.5,61.5C 262.856,61.2865 261.356,61.6198 260,62.5C 257.167,57.5 254.333,52.5 251.5,47.5C 252.77,46.7124 253.77,45.7124 254.5,44.5 Z"/></g>
<g><path style="opacity:0.212" fill="#a2a2a2" d="M 256.5,48.5 C 257.401,49.2905 258.068,50.2905 258.5,51.5C 256.952,51.1788 256.285,50.1788 256.5,48.5 Z"/></g>
<g><path style="opacity:0.329" fill="#959595" d="M 207.5,48.5 C 207.771,50.3797 207.104,51.713 205.5,52.5C 205.66,50.847 206.326,49.5137 207.5,48.5 Z"/></g>
<g><path style="opacity:0.22" fill="#a3a3a3" d="M 96.5,50.5 C 97.4013,51.2905 98.0679,52.2905 98.5,53.5C 96.9519,53.1788 96.2852,52.1788 96.5,50.5 Z"/></g>
<g><path style="opacity:0.353" fill="#ababab" d="M 45.5,49.5 C 45.8432,51.4832 45.1765,52.8166 43.5,53.5C 43.9887,52.0048 44.6554,50.6715 45.5,49.5 Z"/></g>
<g><path style="opacity:0.153" fill="#a4a4a4" d="M 258.5,51.5 C 259.345,52.6715 260.011,54.0048 260.5,55.5C 258.824,54.8166 258.157,53.4832 258.5,51.5 Z"/></g>
<g><path style="opacity:0.122" fill="#b9b9b9" d="M 98.5,53.5 C 99.3446,54.6715 100.011,56.0048 100.5,57.5C 99.8333,57.5 99.1667,57.5 98.5,57.5C 98.5,56.1667 98.5,54.8333 98.5,53.5 Z"/></g>
<g><path style="opacity:0.825" fill="#282828" d="M 200.5,40.5 C 194.165,52.1359 187.498,63.4692 180.5,74.5C 179.986,72.4884 179.82,70.4884 180,68.5C 182.416,63.9994 185.083,59.6661 188,55.5C 188.813,53.5643 189.313,51.5643 189.5,49.5C 190.5,49.5 191.5,49.5 192.5,49.5C 192.798,46.7354 193.798,44.2354 195.5,42C 194.549,41.2825 194.383,40.4491 195,39.5C 196.57,39.67 198.403,40.0033 200.5,40.5 Z"/></g>
<g><path style="opacity:0.298" fill="#b6b6b6" d="M 205.5,52.5 C 205.715,54.1788 205.048,55.1788 203.5,55.5C 203.932,54.2905 204.599,53.2905 205.5,52.5 Z"/></g>
<g><path style="opacity:0.145" fill="#a7a7a7" d="M 100.5,57.5 C 101.674,58.5137 102.34,59.847 102.5,61.5C 100.824,60.8166 100.157,59.4832 100.5,57.5 Z"/></g>
<g><path style="opacity:0.318" fill="#ababab" d="M 203.5,56.5 C 203.715,58.1788 203.048,59.1788 201.5,59.5C 201.932,58.2905 202.599,57.2905 203.5,56.5 Z"/></g>
<g><path style="opacity:0.069" fill="#a3a3a3" d="M 264.5,61.5 C 265.345,62.6715 266.011,64.0048 266.5,65.5C 264.824,64.8166 264.157,63.4832 264.5,61.5 Z"/></g>
<g><path style="opacity:0.169" fill="#9d9d9d" d="M 104.5,64.5 C 105.401,65.2905 106.068,66.2905 106.5,67.5C 104.952,67.1788 104.285,66.1788 104.5,64.5 Z"/></g>
<g><path style="opacity:0.129" fill="#a2a2a2" d="M 266.5,65.5 C 267.345,66.6715 268.011,68.0048 268.5,69.5C 266.824,68.8166 266.157,67.4832 266.5,65.5 Z"/></g>
<g><path style="opacity:0.067" fill="#a0a0a0" d="M 117.5,66.5 C 119.048,66.8212 119.715,67.8212 119.5,69.5C 118.599,68.7095 117.932,67.7095 117.5,66.5 Z"/></g>
<g><path style="opacity:0.251" fill="#b9b9b9" d="M 33.5,70.5 C 33.7148,72.1788 33.0481,73.1788 31.5,73.5C 31.9321,72.2905 32.5987,71.2905 33.5,70.5 Z"/></g>
<g><path style="opacity:0.184" fill="#a5a5a5" d="M 110.5,74.5 C 111.401,75.2905 112.068,76.2905 112.5,77.5C 110.952,77.1788 110.285,76.1788 110.5,74.5 Z"/></g>
<g><path style="opacity:0.416" fill="#a8a8a8" d="M 31.5,74.5 C 31.7148,76.1788 31.0481,77.1788 29.5,77.5C 29.9321,76.2905 30.5987,75.2905 31.5,74.5 Z"/></g>
<g><path style="opacity:0.165" fill="#9f9f9f" d="M 272.5,75.5 C 273.345,76.6715 274.011,78.0048 274.5,79.5C 272.824,78.8166 272.157,77.4832 272.5,75.5 Z"/></g>
<g><path style="opacity:0.498" fill="#a1a1a1" d="M 114.5,81.5 C 115.345,82.6715 116.011,84.0048 116.5,85.5C 114.824,84.8166 114.157,83.4832 114.5,81.5 Z"/></g>
<g><path style="opacity:0.91" fill="#262626" d="M 139.5,104.5 C 132.627,93.1035 125.96,81.4368 119.5,69.5C 119.715,67.8212 119.048,66.8212 117.5,66.5C 116.662,66.1583 116.328,65.4916 116.5,64.5C 117.688,63.9524 118.855,63.6191 120,63.5C 127.432,76.2107 134.265,88.0441 140.5,99C 139.767,100.766 139.433,102.599 139.5,104.5 Z"/></g>
<g><path style="opacity:0.478" fill="#ababab" d="M 25.5,84.5 C 25.7148,86.1788 25.0481,87.1788 23.5,87.5C 23.9321,86.2905 24.5987,85.2905 25.5,84.5 Z"/></g>
<g><path style="opacity:0.435" fill="#7e7e7e" d="M 116.5,85.5 C 117.906,85.9731 118.573,86.9731 118.5,88.5C 117.094,88.0269 116.427,87.0269 116.5,85.5 Z"/></g>
<g><path style="opacity:0.955" fill="#202020" d="M 274.5,79.5 C 276.437,82.7932 278.437,86.1266 280.5,89.5C 280.157,91.4832 280.824,92.8166 282.5,93.5C 283.82,95.4632 285.154,97.4632 286.5,99.5C 284.589,99.5743 283.422,100.574 283,102.5C 279.447,97.2288 276.281,91.7288 273.5,86C 274.287,83.9011 274.62,81.7345 274.5,79.5 Z"/></g>
<g><path style="opacity:0.212" fill="#a0a0a0" d="M 118.5,88.5 C 119.401,89.2905 120.068,90.2905 120.5,91.5C 118.952,91.1788 118.285,90.1788 118.5,88.5 Z"/></g>
<g><path style="opacity:0.969" fill="#222222" d="M 98.5,57.5 C 99.1667,57.5 99.8333,57.5 100.5,57.5C 100.157,59.4832 100.824,60.8166 102.5,61.5C 103.401,62.2905 104.068,63.2905 104.5,64.5C 104.285,66.1788 104.952,67.1788 106.5,67.5C 107.765,69.7912 109.098,72.1246 110.5,74.5C 110.285,76.1788 110.952,77.1788 112.5,77.5C 113.345,78.6715 114.011,80.0048 114.5,81.5C 114.157,83.4832 114.824,84.8166 116.5,85.5C 116.427,87.0269 117.094,88.0269 118.5,88.5C 118.285,90.1788 118.952,91.1788 120.5,91.5C 121.345,92.6715 122.011,94.0048 122.5,95.5C 122.427,97.0269 123.094,98.0269 124.5,98.5C 125.401,99.2905 126.068,100.29 126.5,101.5C 126.433,103.401 126.767,105.234 127.5,107C 127.164,108.03 126.497,108.53 125.5,108.5C 122.93,105.058 120.43,101.392 118,97.5C 112.157,86.9634 105.823,75.6301 99,63.5C 98.1667,62 97,60.8333 95.5,60C 95.2592,58.4375 95.7592,56.9375 97,55.5C 97.2784,56.4158 97.7784,57.0825 98.5,57.5 Z"/></g>
<g><path style="opacity:0.202" fill="#a1a1a1" d="M 280.5,89.5 C 281.345,90.6715 282.011,92.0048 282.5,93.5C 280.824,92.8166 280.157,91.4832 280.5,89.5 Z"/></g>
<g><path style="opacity:0.306" fill="#b6b6b6" d="M 21.5,90.5 C 21.7148,92.1788 21.0481,93.1788 19.5,93.5C 19.9321,92.2905 20.5987,91.2905 21.5,90.5 Z"/></g>
<g><path style="opacity:0.369" fill="#a5a5a5" d="M 183.5,90.5 C 183.715,92.1788 183.048,93.1788 181.5,93.5C 181.932,92.2905 182.599,91.2905 183.5,90.5 Z"/></g>
<g><path style="opacity:0.435" fill="#adadad" d="M 181.5,93.5 C 181.843,95.4832 181.176,96.8166 179.5,97.5C 179.989,96.0048 180.655,94.6715 181.5,93.5 Z"/></g>
<g><path style="opacity:0.165" fill="#aaaaaa" d="M 122.5,95.5 C 123.906,95.9731 124.573,96.9731 124.5,98.5C 123.094,98.0269 122.427,97.0269 122.5,95.5 Z"/></g>
<g><path style="opacity:0.271" fill="#9f9f9f" d="M 179.5,97.5 C 179.573,99.0269 178.906,100.027 177.5,100.5C 177.427,98.9731 178.094,97.9731 179.5,97.5 Z"/></g>
<g><path style="opacity:0.467" fill="#b7b7b7" d="M 17.5,97.5 C 17.8432,99.4832 17.1765,100.817 15.5,101.5C 15.9887,100.005 16.6554,98.6715 17.5,97.5 Z"/></g>
<g><path style="opacity:0.22" fill="#9c9c9c" d="M 286.5,100.5 C 287.401,101.29 288.068,102.29 288.5,103.5C 286.952,103.179 286.285,102.179 286.5,100.5 Z"/></g>
<g><path style="opacity:0.161" fill="#c8c8c8" d="M 15.5,101.5 C 15.5,102.833 15.5,104.167 15.5,105.5C 14.8333,105.5 14.1667,105.5 13.5,105.5C 13.6596,103.847 14.3263,102.514 15.5,101.5 Z"/></g>
<g><path style="opacity:0.953" fill="#2e2e2e" d="M 180.5,74.5 C 172.154,90.1384 163.487,105.472 154.5,120.5C 154.489,118.983 153.823,117.816 152.5,117C 160.253,101.742 168.753,86.9085 178,72.5C 178.417,73.756 179.25,74.4226 180.5,74.5 Z"/></g>
<g><path style="opacity:0.086" fill="#a0a0a0" d="M 288.5,103.5 C 289.345,104.671 290.011,106.005 290.5,107.5C 288.824,106.817 288.157,105.483 288.5,103.5 Z"/></g>
<g><path style="opacity:0.94" fill="#5f5f5f" d="M 126.5,101.5 C 128.2,103.9 129.533,106.566 130.5,109.5C 128.888,110.452 127.388,110.786 126,110.5C 125.536,109.906 125.369,109.239 125.5,108.5C 126.497,108.53 127.164,108.03 127.5,107C 126.767,105.234 126.433,103.401 126.5,101.5 Z"/></g>
<g><path style="opacity:0.404" fill="#959595" d="M 175.5,104.5 C 175.771,106.38 175.104,107.713 173.5,108.5C 173.66,106.847 174.326,105.514 175.5,104.5 Z"/></g>
<g><path style="opacity:0.094" fill="#ececec" d="M 13.5,105.5 C 13.8432,107.483 13.1765,108.817 11.5,109.5C 11.6596,107.847 12.3263,106.514 13.5,105.5 Z"/></g>
<g><path style="opacity:0.106" fill="#a1a1a1" d="M 290.5,107.5 C 291.345,108.671 292.011,110.005 292.5,111.5C 290.824,110.817 290.157,109.483 290.5,107.5 Z"/></g>
<g><path style="opacity:0.365" fill="#b8b8b8" d="M 11.5,109.5 C 11.5,110.833 10.8333,111.5 9.5,111.5C 9.83333,110.5 10.5,109.833 11.5,109.5 Z"/></g>
<g><path style="opacity:0.314" fill="#b9b9b9" d="M 173.5,108.5 C 173.715,110.179 173.048,111.179 171.5,111.5C 171.932,110.29 172.599,109.29 173.5,108.5 Z"/></g>
<g><path style="opacity:0.376" fill="#9b9b9b" d="M 143.5,111.5 C 144.906,111.973 145.573,112.973 145.5,114.5C 143.65,113.758 142.984,112.758 143.5,111.5 Z"/></g>
<g><path style="opacity:0.471" fill="#bababa" d="M 9.5,111.5 C 9.84316,113.483 9.17649,114.817 7.5,115.5C 7.6596,113.847 8.32627,112.514 9.5,111.5 Z"/></g>
<g><path style="opacity:0.976" fill="#434343" d="M 130.5,109.5 C 131.377,111.728 132.71,113.728 134.5,115.5C 132.926,115.937 131.759,116.937 131,118.5C 130.017,116.552 128.85,114.718 127.5,113C 128.715,110.904 129.549,111.071 130,113.5C 130.49,112.207 130.657,110.873 130.5,109.5 Z"/></g>
<g><path style="opacity:0.188" fill="#a5a5a5" d="M 294.5,113.5 C 295.345,114.671 296.011,116.005 296.5,117.5C 294.824,116.817 294.157,115.483 294.5,113.5 Z"/></g>
<g><path style="opacity:0.078" fill="#bfbfbf" d="M 145.5,115.5 C 146.906,115.973 147.573,116.973 147.5,118.5C 146.094,118.027 145.427,117.027 145.5,115.5 Z"/></g>
<g><path style="opacity:0.525" fill="#a0a0a0" d="M 134.5,115.5 C 135.345,116.671 136.011,118.005 136.5,119.5C 134.824,118.817 134.157,117.483 134.5,115.5 Z"/></g>
<g><path style="opacity:0.498" fill="#ababab" d="M 5.5,117.5 C 5.84316,119.483 5.17649,120.817 3.5,121.5C 3.98869,120.005 4.65536,118.671 5.5,117.5 Z"/></g>
<g><path style="opacity:0.302" fill="#b2b2b2" d="M 167.5,117.5 C 167.843,119.483 167.176,120.817 165.5,121.5C 165.989,120.005 166.655,118.671 167.5,117.5 Z"/></g>
<g><path style="opacity:0.18" fill="#b6b6b6" d="M 136.5,119.5 C 137.906,119.973 138.573,120.973 138.5,122.5C 137.094,122.027 136.427,121.027 136.5,119.5 Z"/></g>
<g><path style="opacity:0.275" fill="#a4a4a4" d="M 298.5,120.5 C 299.401,121.29 300.068,122.29 300.5,123.5C 298.952,123.179 298.285,122.179 298.5,120.5 Z"/></g>
<g><path style="opacity:0.259" fill="#bdbdbd" d="M 3.5,121.5 C 3.76781,123.099 3.43448,124.432 2.5,125.5C 2.06178,125.565 1.72845,125.399 1.5,125C 2.0848,123.698 2.75147,122.531 3.5,121.5 Z"/></g>
<g><path style="opacity:0.999" fill="#3d3d3d" d="M 7.5,125.5 C 49.6447,125.006 91.6447,125.506 133.5,127C 91.1667,127.667 48.8333,127.667 6.5,127C 7.05596,126.617 7.38929,126.117 7.5,125.5 Z"/></g>
<g><path style="opacity:1" fill="#343434" d="M 295.5,123.5 C 296.404,124.209 296.737,125.209 296.5,126.5C 253.832,126.667 211.165,126.5 168.5,126C 211.179,126.163 253.512,125.329 295.5,123.5 Z"/></g>
<g><path style="opacity:0.17" fill="#8a8a8a" d="M 138.5,122.5 C 139.468,124.607 139.802,126.941 139.5,129.5C 94.3302,129.832 49.3302,129.499 4.5,128.5C 49.1667,128.5 93.8333,128.5 138.5,128.5C 138.5,126.5 138.5,124.5 138.5,122.5 Z"/></g>
<g><path style="opacity:0.224" fill="#828282" d="M 300.5,123.5 C 300.833,123.5 301.167,123.5 301.5,123.5C 301.5,125.5 301.5,127.5 301.5,129.5C 255.167,129.5 208.833,129.5 162.5,129.5C 162.232,127.901 162.566,126.568 163.5,125.5C 163.5,126.5 163.5,127.5 163.5,128.5C 209.167,128.5 254.833,128.5 300.5,128.5C 300.5,126.833 300.5,125.167 300.5,123.5 Z"/></g>
<g><path style="opacity:0.997" fill="#020202" d="M 138.5,141.5 C 138.783,148.731 137.95,149.064 136,142.5C 120.241,143.325 104.407,143.825 88.5,144C 104.167,144.333 119.833,144.667 135.5,145C 133.117,145.065 132.45,145.898 133.5,147.5C 131.448,151.822 129.114,155.989 126.5,160C 127.956,160.423 128.456,161.256 128,162.5C 127.586,162.043 127.086,161.709 126.5,161.5C 124.973,163.193 123.64,165.027 122.5,167C 124.155,168.444 124.822,170.278 124.5,172.5C 121.802,176.854 119.135,181.187 116.5,185.5C 114.876,185.64 113.71,184.973 113,183.5C 100.683,205.52 87.8492,227.353 74.5,249C 77.2785,249.149 77.7785,249.983 76,251.5C 75.586,251.043 75.086,250.709 74.5,250.5C 73.3333,252.167 72.1667,253.833 71,255.5C 68.5215,253.749 67.6882,251.582 68.5,249C 66.7774,248.477 65.444,247.477 64.5,246C 59.7147,236.927 54.548,228.094 49,219.5C 47.9887,220.337 46.8221,220.67 45.5,220.5C 44.3995,219.395 43.7329,218.062 43.5,216.5C 43.7031,214.956 44.3698,213.622 45.5,212.5C 40.7361,203.963 35.7361,195.63 30.5,187.5C 30.7093,186.914 31.0426,186.414 31.5,186C 29.5329,184.786 27.5329,184.286 25.5,184.5C 25.5,183.167 24.8333,182.5 23.5,182.5C 22.0937,182.027 21.427,181.027 21.5,179.5C 21.7148,177.821 21.0481,176.821 19.5,176.5C 17.2763,173.06 15.2763,169.393 13.5,165.5C 13.7148,163.821 13.0481,162.821 11.5,162.5C 10.1389,160.15 8.80556,157.816 7.5,155.5C 7.71481,153.821 7.04814,152.821 5.5,152.5C 5.84316,150.517 5.17649,149.183 3.5,148.5C 2.63137,146.283 2.29803,143.95 2.5,141.5C 47.9201,141.486 93.2535,141.486 138.5,141.5 Z"/></g>
<g><path style="opacity:0.998" fill="#080808" d="M 301.5,143.5 C 301.5,144.5 301.5,145.5 301.5,146.5C 300.857,148.076 299.857,149.41 298.5,150.5C 296.876,150.36 295.71,151.027 295,152.5C 294.25,151.874 293.416,151.374 292.5,151C 293.34,149.334 292.84,149.167 291,150.5C 290.691,151.766 290.191,152.933 289.5,154C 292,154.833 292.167,156 290,157.5C 289.667,156.833 289.333,156.167 289,155.5C 284.699,163.45 280.032,171.117 275,178.5C 271.998,186.025 267.998,193.025 263,199.5C 258.435,206.854 254.435,214.52 251,222.5C 248.074,225.901 245.574,229.568 243.5,233.5C 245.854,235.246 246.854,237.579 246.5,240.5C 245.167,240.5 243.833,240.5 242.5,240.5C 242.762,241.978 242.429,243.311 241.5,244.5C 240.319,242.865 240.319,241.198 241.5,239.5C 241.154,238.304 240.654,238.304 240,239.5C 238.627,242.412 237.127,245.246 235.5,248C 236.899,248.595 238.232,248.428 239.5,247.5C 240.386,248.325 240.719,249.325 240.5,250.5C 238.915,256.274 235.248,259.107 229.5,259C 227.536,257.549 226.203,255.716 225.5,253.5C 225.715,251.821 225.048,250.821 223.5,250.5C 223.5,250.167 223.5,249.833 223.5,249.5C 223.573,247.973 222.906,246.973 221.5,246.5C 221.5,246.167 221.5,245.833 221.5,245.5C 221.262,243.596 220.262,242.262 218.5,241.5C 217.248,239.999 216.248,238.332 215.5,236.5C 216.084,233.715 215.084,232.048 212.5,231.5C 209.642,227.117 207.308,222.45 205.5,217.5C 205.715,215.821 205.048,214.821 203.5,214.5C 202.164,212.163 200.83,209.829 199.5,207.5C 199.715,205.821 199.048,204.821 197.5,204.5C 195.246,200.993 193.246,197.327 191.5,193.5C 191.715,191.821 191.048,190.821 189.5,190.5C 189.5,190.167 189.5,189.833 189.5,189.5C 189.586,188.504 189.252,187.671 188.5,187C 189.793,186.51 191.127,186.343 192.5,186.5C 193.935,186.964 193.435,184.964 191,180.5C 185.826,172.148 180.659,163.815 175.5,155.5C 174.423,153.831 174.256,152.165 175,150.5C 171.593,149.803 170.426,147.97 171.5,145C 170.269,143.033 169.269,143.199 168.5,145.5C 169.578,148.408 171.245,150.908 173.5,153C 171.711,153.52 170.044,153.187 168.5,152C 168.833,151.667 169.167,151.333 169.5,151C 168.809,149.933 168.309,148.766 168,147.5C 167.764,149.119 166.931,150.119 165.5,150.5C 165.567,149.041 165.234,147.708 164.5,146.5C 165.038,144.883 165.371,143.216 165.5,141.5C 209.665,140.335 253.998,140.169 298.5,141C 299.078,142.417 300.078,143.25 301.5,143.5 Z"/></g>
<g><path style="opacity:0.941" fill="#545454" d="M 165.5,141.5 C 165.371,143.216 165.038,144.883 164.5,146.5C 164.167,146.5 163.833,146.5 163.5,146.5C 162.142,144.257 162.808,142.591 165.5,141.5 Z"/></g>
<g><path style="opacity:0.982" fill="#2b2b2b" d="M 138.5,141.5 C 139.629,143.628 139.796,145.961 139,148.5C 133.445,156.186 128.612,164.186 124.5,172.5C 124.822,170.278 124.155,168.444 122.5,167C 123.64,165.027 124.973,163.193 126.5,161.5C 127.086,161.709 127.586,162.043 128,162.5C 128.456,161.256 127.956,160.423 126.5,160C 129.114,155.989 131.448,151.822 133.5,147.5C 132.45,145.898 133.117,145.065 135.5,145C 119.833,144.667 104.167,144.333 88.5,144C 104.407,143.825 120.241,143.325 136,142.5C 137.95,149.064 138.783,148.731 138.5,141.5 Z"/></g>
<g><path style="opacity:0.024" fill="#e1e1e1" d="M 163.5,146.5 C 163.833,146.5 164.167,146.5 164.5,146.5C 165.234,147.708 165.567,149.041 165.5,150.5C 164.326,149.486 163.66,148.153 163.5,146.5 Z"/></g>
<g><path style="opacity:0.102" fill="#b1b1b1" d="M 3.5,148.5 C 5.17649,149.183 5.84316,150.517 5.5,152.5C 4.65536,151.329 3.98869,149.995 3.5,148.5 Z"/></g>
<g><path style="opacity:0.995" fill="#070707" d="M 156.5,153.5 C 156.157,155.483 156.824,156.817 158.5,157.5C 158.157,159.483 158.824,160.817 160.5,161.5C 160.157,163.483 160.824,164.817 162.5,165.5C 162.157,167.483 162.824,168.817 164.5,169.5C 166.897,171.662 168.564,174.329 169.5,177.5C 169.714,179.144 169.38,180.644 168.5,182C 169.449,182.617 170.282,182.451 171,181.5C 171.74,183.319 172.907,184.652 174.5,185.5C 174.157,187.483 174.824,188.817 176.5,189.5C 176.157,191.483 176.824,192.817 178.5,193.5C 183.921,201.336 188.588,209.669 192.5,218.5C 192.285,220.179 192.952,221.179 194.5,221.5C 197.11,225.796 199.776,230.13 202.5,234.5C 202.285,236.179 202.952,237.179 204.5,237.5C 204.157,239.483 204.824,240.817 206.5,241.5C 206.157,243.483 206.824,244.817 208.5,245.5C 211.715,250.906 215.215,256.239 219,261.5C 219.722,264.261 219.555,266.927 218.5,269.5C 218.167,269.5 217.833,269.5 217.5,269.5C 217.167,268.167 216.833,268.167 216.5,269.5C 207.833,269.5 199.167,269.5 190.5,269.5C 180.167,268.167 169.833,268.167 159.5,269.5C 159.167,269.5 158.833,269.5 158.5,269.5C 156.5,268.167 154.5,268.167 152.5,269.5C 130.167,269.5 107.833,269.5 85.5,269.5C 83.157,266.188 83.157,262.855 85.5,259.5C 86.8333,259.5 87.5,258.833 87.5,257.5C 90.9692,249.896 94.9692,242.563 99.5,235.5C 101.048,235.179 101.715,234.179 101.5,232.5C 115.103,209.623 128.437,186.623 141.5,163.5C 143.176,162.817 143.843,161.483 143.5,159.5C 144.401,158.71 145.068,157.71 145.5,156.5C 147.104,155.713 147.771,154.38 147.5,152.5C 148.134,151.053 149.301,150.387 151,150.5C 153.399,150.613 155.232,151.613 156.5,153.5 Z"/></g>
<g><path style="opacity:0.114" fill="#a8a8a8" d="M 156.5,153.5 C 157.345,154.671 158.011,156.005 158.5,157.5C 156.824,156.817 156.157,155.483 156.5,153.5 Z"/></g>
<g><path style="opacity:0.078" fill="#aaaaaa" d="M 5.5,152.5 C 7.04814,152.821 7.71481,153.821 7.5,155.5C 6.59872,154.71 5.93205,153.71 5.5,152.5 Z"/></g>
<g><path style="opacity:0.361" fill="#949494" d="M 147.5,152.5 C 147.771,154.38 147.104,155.713 145.5,156.5C 145.66,154.847 146.326,153.514 147.5,152.5 Z"/></g>
<g><path style="opacity:0.18" fill="#a6a6a6" d="M 158.5,157.5 C 159.345,158.671 160.011,160.005 160.5,161.5C 158.824,160.817 158.157,159.483 158.5,157.5 Z"/></g>
<g><path style="opacity:0.341" fill="#adadad" d="M 143.5,159.5 C 143.843,161.483 143.176,162.817 141.5,163.5C 141.989,162.005 142.655,160.671 143.5,159.5 Z"/></g>
<g><path style="opacity:0.043" fill="#aeaeae" d="M 11.5,162.5 C 13.0481,162.821 13.7148,163.821 13.5,165.5C 12.5987,164.71 11.9321,163.71 11.5,162.5 Z"/></g>
<g><path style="opacity:0.467" fill="#9f9f9f" d="M 160.5,161.5 C 161.345,162.671 162.011,164.005 162.5,165.5C 160.824,164.817 160.157,163.483 160.5,161.5 Z"/></g>
<g><path style="opacity:0.137" fill="#a5a5a5" d="M 173.5,162.5 C 175.176,163.183 175.843,164.517 175.5,166.5C 174.655,165.329 173.989,163.995 173.5,162.5 Z"/></g>
<g><path style="opacity:0.934" fill="#1d1d1d" d="M 189.5,189.5 C 185.264,183.372 181.264,177.038 177.5,170.5C 177.843,168.517 177.176,167.183 175.5,166.5C 175.843,164.517 175.176,163.183 173.5,162.5C 170.444,158.774 167.777,154.774 165.5,150.5C 166.931,150.119 167.764,149.119 168,147.5C 168.309,148.766 168.809,149.933 169.5,151C 169.167,151.333 168.833,151.667 168.5,152C 170.044,153.187 171.711,153.52 173.5,153C 171.245,150.908 169.578,148.408 168.5,145.5C 169.269,143.199 170.269,143.033 171.5,145C 170.426,147.97 171.593,149.803 175,150.5C 174.256,152.165 174.423,153.831 175.5,155.5C 180.659,163.815 185.826,172.148 191,180.5C 193.435,184.964 193.935,186.964 192.5,186.5C 191.127,186.343 189.793,186.51 188.5,187C 189.252,187.671 189.586,188.504 189.5,189.5 Z"/></g>
<g><path style="opacity:0.196" fill="#9e9e9e" d="M 162.5,165.5 C 163.345,166.671 164.011,168.005 164.5,169.5C 162.824,168.817 162.157,167.483 162.5,165.5 Z"/></g>
<g><path style="opacity:0.114" fill="#a5a5a5" d="M 175.5,166.5 C 177.176,167.183 177.843,168.517 177.5,170.5C 176.655,169.329 175.989,167.995 175.5,166.5 Z"/></g>
<g><path style="opacity:0.051" fill="#a5a5a5" d="M 19.5,176.5 C 21.0481,176.821 21.7148,177.821 21.5,179.5C 20.5987,178.71 19.9321,177.71 19.5,176.5 Z"/></g>
<g><path style="opacity:0.946" fill="#4d4d4d" d="M 169.5,177.5 C 171.955,179.632 173.621,182.299 174.5,185.5C 172.907,184.652 171.74,183.319 171,181.5C 170.282,182.451 169.449,182.617 168.5,182C 169.38,180.644 169.714,179.144 169.5,177.5 Z"/></g>
<g><path style="opacity:0.082" fill="#a2a2a2" d="M 23.5,182.5 C 24.8333,182.5 25.5,183.167 25.5,184.5C 25.5,184.833 25.5,185.167 25.5,185.5C 24.5987,184.71 23.9321,183.71 23.5,182.5 Z"/></g>
<g><path style="opacity:0.153" fill="#a1a1a1" d="M 174.5,185.5 C 175.345,186.671 176.011,188.005 176.5,189.5C 174.824,188.817 174.157,187.483 174.5,185.5 Z"/></g>
<g><path style="opacity:0.076" fill="#a2a2a2" d="M 176.5,189.5 C 177.345,190.671 178.011,192.005 178.5,193.5C 176.824,192.817 176.157,191.483 176.5,189.5 Z"/></g>
<g><path style="opacity:0.027" fill="#9e9e9e" d="M 189.5,190.5 C 191.048,190.821 191.715,191.821 191.5,193.5C 190.599,192.71 189.932,191.71 189.5,190.5 Z"/></g>
<g><path style="opacity:0.963" fill="#202020" d="M 298.5,150.5 C 280.764,180.244 263.431,210.244 246.5,240.5C 246.854,237.579 245.854,235.246 243.5,233.5C 245.574,229.568 248.074,225.901 251,222.5C 254.435,214.52 258.435,206.854 263,199.5C 267.998,193.025 271.998,186.025 275,178.5C 280.032,171.117 284.699,163.45 289,155.5C 289.333,156.167 289.667,156.833 290,157.5C 292.167,156 292,154.833 289.5,154C 290.191,152.933 290.691,151.766 291,150.5C 292.84,149.167 293.34,149.334 292.5,151C 293.416,151.374 294.25,151.874 295,152.5C 295.71,151.027 296.876,150.36 298.5,150.5 Z"/></g>
<g><path style="opacity:0.075" fill="#9f9f9f" d="M 29.5,192.5 C 31.0481,192.821 31.7148,193.821 31.5,195.5C 30.5987,194.71 29.9321,193.71 29.5,192.5 Z"/></g>
<g><path style="opacity:0.043" fill="#9d9d9d" d="M 31.5,196.5 C 33.0481,196.821 33.7148,197.821 33.5,199.5C 32.5987,198.71 31.9321,197.71 31.5,196.5 Z"/></g>
<g><path style="opacity:0.976" fill="#1e1e1e" d="M 25.5,184.5 C 27.5329,184.286 29.5329,184.786 31.5,186C 31.0426,186.414 30.7093,186.914 30.5,187.5C 35.7361,195.63 40.7361,203.963 45.5,212.5C 44.3698,213.622 43.7031,214.956 43.5,216.5C 39.4137,211.335 36.0804,205.668 33.5,199.5C 33.7148,197.821 33.0481,196.821 31.5,196.5C 31.5,196.167 31.5,195.833 31.5,195.5C 31.7148,193.821 31.0481,192.821 29.5,192.5C 27.9172,190.337 26.5839,188.004 25.5,185.5C 25.5,185.167 25.5,184.833 25.5,184.5 Z"/></g>
<g><path style="opacity:0.051" fill="#9d9d9d" d="M 197.5,204.5 C 199.048,204.821 199.715,205.821 199.5,207.5C 198.599,206.71 197.932,205.71 197.5,204.5 Z"/></g>
<g><path style="opacity:0.078" fill="#a4a4a4" d="M 203.5,214.5 C 205.048,214.821 205.715,215.821 205.5,217.5C 204.599,216.71 203.932,215.71 203.5,214.5 Z"/></g>
<g><path style="opacity:0.176" fill="#9e9e9e" d="M 192.5,218.5 C 193.401,219.29 194.068,220.29 194.5,221.5C 192.952,221.179 192.285,220.179 192.5,218.5 Z"/></g>
<g><path style="opacity:0.894" fill="#242424" d="M 116.5,185.5 C 102.623,209.934 88.7895,234.267 75,258.5C 69.2831,260.059 65.4498,258.059 63.5,252.5C 63.8432,250.517 63.1765,249.183 61.5,248.5C 55.6761,239.528 50.3428,230.194 45.5,220.5C 46.8221,220.67 47.9887,220.337 49,219.5C 54.548,228.094 59.7147,236.927 64.5,246C 65.444,247.477 66.7774,248.477 68.5,249C 67.6882,251.582 68.5215,253.749 71,255.5C 72.1667,253.833 73.3333,252.167 74.5,250.5C 75.086,250.709 75.586,251.043 76,251.5C 77.7785,249.983 77.2785,249.149 74.5,249C 87.8492,227.353 100.683,205.52 113,183.5C 113.71,184.973 114.876,185.64 116.5,185.5 Z"/></g>
<g><path style="opacity:0.467" fill="#7d7d7d" d="M 212.5,231.5 C 215.084,232.048 216.084,233.715 215.5,236.5C 214.692,234.78 213.692,233.113 212.5,231.5 Z"/></g>
<g><path style="opacity:0.263" fill="#adadad" d="M 101.5,232.5 C 101.715,234.179 101.048,235.179 99.5,235.5C 99.9321,234.29 100.599,233.29 101.5,232.5 Z"/></g>
<g><path style="opacity:0.196" fill="#9c9c9c" d="M 202.5,234.5 C 203.401,235.29 204.068,236.29 204.5,237.5C 202.952,237.179 202.285,236.179 202.5,234.5 Z"/></g>
<g><path style="opacity:0.435" fill="#959595" d="M 204.5,237.5 C 205.345,238.671 206.011,240.005 206.5,241.5C 204.824,240.817 204.157,239.483 204.5,237.5 Z"/></g>
<g><path style="opacity:0.157" fill="#a4a4a4" d="M 206.5,241.5 C 207.345,242.671 208.011,244.005 208.5,245.5C 206.824,244.817 206.157,243.483 206.5,241.5 Z"/></g>
<g><path style="opacity:0.961" fill="#2c2c2c" d="M 246.5,240.5 C 244.308,243.78 242.308,247.113 240.5,250.5C 240.719,249.325 240.386,248.325 239.5,247.5C 238.232,248.428 236.899,248.595 235.5,248C 237.127,245.246 238.627,242.412 240,239.5C 240.654,238.304 241.154,238.304 241.5,239.5C 240.319,241.198 240.319,242.865 241.5,244.5C 242.429,243.311 242.762,241.978 242.5,240.5C 243.833,240.5 245.167,240.5 246.5,240.5 Z"/></g>
<g><path style="opacity:0.157" fill="#d8d8d8" d="M 218.5,241.5 C 220.262,242.262 221.262,243.596 221.5,245.5C 219.738,244.738 218.738,243.404 218.5,241.5 Z"/></g>
<g><path style="opacity:0.078" fill="#dbdbdb" d="M 221.5,246.5 C 222.906,246.973 223.573,247.973 223.5,249.5C 222.094,249.027 221.427,248.027 221.5,246.5 Z"/></g>
<g><path style="opacity:0.133" fill="#a7a7a7" d="M 61.5,248.5 C 63.1765,249.183 63.8432,250.517 63.5,252.5C 62.6554,251.329 61.9887,249.995 61.5,248.5 Z"/></g>
<g><path style="opacity:0.102" fill="#a9a9a9" d="M 223.5,250.5 C 225.048,250.821 225.715,251.821 225.5,253.5C 224.599,252.71 223.932,251.71 223.5,250.5 Z"/></g>
<g><path style="opacity:0.224" fill="#b4b4b4" d="M 87.5,257.5 C 87.5,258.833 86.8333,259.5 85.5,259.5C 85.8333,258.5 86.5,257.833 87.5,257.5 Z"/></g>
</svg>
