<svg xmlns="http://www.w3.org/2000/svg" xmlns:xlink="http://www.w3.org/1999/xlink" version="1.1" width="213px" height="236px" style="shape-rendering:geometricPrecision; text-rendering:geometricPrecision; image-rendering:optimizeQuality; fill-rule:evenodd; clip-rule:evenodd">
<g><path style="opacity:1" fill="#000000" d="M 21.5,-0.5 C 26.5,-0.5 31.5,-0.5 36.5,-0.5C 89.2903,28.7277 141.624,58.7277 193.5,89.5C 192.883,89.6107 192.383,89.944 192,90.5C 184.795,87.7017 177.628,87.8684 170.5,91C 154.879,100.309 138.879,108.809 122.5,116.5C 101.329,104.749 80.3293,92.7495 59.5,80.5C 59.1583,79.6618 58.4916,79.3284 57.5,79.5C 41.8609,70.3449 26.1942,61.1783 10.5,52C 6.12303,47.957 2.95637,43.1237 1,37.5C 0.500007,90.8323 0.33334,144.166 0.5,197.5C 0.5,202.833 0.5,208.167 0.5,213.5C 0.166667,213.5 -0.166667,213.5 -0.5,213.5C -0.5,149.833 -0.5,86.1667 -0.5,22.5C 3.41031,11.5891 10.7436,3.9224 21.5,-0.5 Z"/></g>
<g><path style="opacity:1" fill="#000000" d="M 57.5,79.5 C 57.5,104.167 57.5,128.833 57.5,153.5C 57.5,168.5 57.5,183.5 57.5,198.5C 48.0636,178.295 33.0636,172.795 12.5,182C 7.13982,186.184 3.13982,191.351 0.5,197.5C 0.33334,144.166 0.500007,90.8323 1,37.5C 2.95637,43.1237 6.12303,47.957 10.5,52C 26.1942,61.1783 41.8609,70.3449 57.5,79.5 Z"/></g>
<g><path style="opacity:1" fill="#000000" d="M 193.5,89.5 C 203.278,93.3916 209.611,100.392 212.5,110.5C 212.5,114.833 212.5,119.167 212.5,123.5C 210.435,131.096 206.102,137.262 199.5,142C 149.594,170.756 99.5944,199.256 49.5,227.5C 56.3565,219.083 59.0231,209.416 57.5,198.5C 57.5,183.5 57.5,168.5 57.5,153.5C 58.4916,153.672 59.1583,153.338 59.5,152.5C 80.6981,140.738 101.698,128.738 122.5,116.5C 138.879,108.809 154.879,100.309 170.5,91C 177.628,87.8684 184.795,87.7017 192,90.5C 192.383,89.944 192.883,89.6107 193.5,89.5 Z"/></g>
<g><path style="opacity:0.294" fill="#000000" d="M 57.5,79.5 C 58.4916,79.3284 59.1583,79.6618 59.5,80.5C 58.1667,104.5 58.1667,128.5 59.5,152.5C 59.1583,153.338 58.4916,153.672 57.5,153.5C 57.5,128.833 57.5,104.167 57.5,79.5 Z"/></g>
<g><path style="opacity:1" fill="#000000" d="M 57.5,198.5 C 59.0231,209.416 56.3565,219.083 49.5,227.5C 45.6357,230.932 41.3023,233.599 36.5,235.5C 31.5,235.5 26.5,235.5 21.5,235.5C 10.4254,232.091 3.42538,224.758 0.5,213.5C 0.5,208.167 0.5,202.833 0.5,197.5C 3.13982,191.351 7.13982,186.184 12.5,182C 33.0636,172.795 48.0636,178.295 57.5,198.5 Z"/></g>
</svg>