<?xml version="1.0" standalone="no"?>
<!DOCTYPE svg PUBLIC "-//W3C//DTD SVG 20010904//EN"
 "http://www.w3.org/TR/2001/REC-SVG-20010904/DTD/svg10.dtd">
<svg version="1.0" xmlns="http://www.w3.org/2000/svg"
 width="798.000000pt" height="495.000000pt" viewBox="0 0 798.000000 495.000000"
 preserveAspectRatio="xMidYMid meet">
<metadata>
Created by potrace 1.16, written by Peter Selinger 2001-2019
</metadata>
<g transform="translate(0.000000,495.000000) scale(0.100000,-0.100000)"
fill="#000000" stroke="none">
<path d="M4324 4916 c-18 -14 -19 -30 -22 -278 -2 -231 -5 -265 -19 -275 -13
-10 -118 -13 -444 -13 -235 0 -434 -3 -443 -6 -14 -5 -16 -47 -16 -368 0 -276
-3 -366 -13 -379 -11 -15 -28 -17 -132 -15 l-120 3 -3 529 c-2 475 -4 531 -19
548 -15 17 -51 18 -675 18 -435 0 -666 -4 -679 -10 -18 -10 -19 -25 -19 -368
0 -265 -3 -361 -12 -370 -9 -9 -172 -12 -674 -12 -615 0 -662 -1 -668 -17 -4
-10 -7 -155 -6 -323 1 -168 1 -312 1 -321 -1 -15 -21 -17 -168 -21 -93 -1
-174 -7 -180 -11 -19 -12 -19 -1592 -1 -1604 7 -4 387 -8 844 -9 457 0 839 -4
848 -7 14 -6 16 -31 16 -211 0 -193 1 -206 19 -216 12 -6 120 -10 280 -10 144
0 262 -1 263 -2 1 -2 4 -109 7 -238 l6 -235 994 -3 c781 -2 997 -5 1003 -15 4
-6 8 -153 8 -325 0 -197 4 -321 10 -333 10 -18 27 -19 579 -19 527 0 570 1
589 18 18 16 20 38 31 407 10 356 12 392 29 415 l19 25 1004 5 c552 3 1005 7
1006 8 1 1 9 9 17 18 14 13 16 60 16 354 0 260 3 341 13 347 6 4 81 10 165 13
147 5 155 6 173 29 18 22 19 50 19 790 0 646 -2 770 -14 787 -13 17 -31 20
-176 24 -128 4 -163 8 -170 20 -11 17 -17 317 -12 611 3 181 2 197 -16 219
l-20 24 -878 1 c-484 0 -935 -1 -1004 -3 -134 -4 -156 0 -165 28 -3 10 -7 183
-9 386 -3 367 -3 368 -26 386 -21 17 -55 18 -579 18 -465 0 -560 -2 -577 -14z
m-3474 -1998 c11 -13 23 -34 27 -48 3 -14 11 -36 18 -50 29 -60 97 -225 145
-350 23 -60 101 -244 106 -249 14 -15 45 50 170 349 8 19 19 43 24 52 6 10 10
23 10 29 0 7 9 30 19 53 10 23 27 61 36 86 31 79 58 135 69 142 16 11 168 9
186 -2 13 -8 15 -76 16 -489 1 -421 0 -482 -14 -493 -20 -17 -100 -15 -117 3
-11 11 -14 84 -17 356 -2 252 -6 345 -15 354 -10 10 -14 8 -18 -7 -4 -10 -22
-57 -42 -104 -19 -47 -41 -101 -48 -120 -13 -35 -80 -197 -149 -362 -20 -47
-36 -91 -36 -97 0 -16 -35 -31 -74 -31 -39 0 -48 12 -96 140 -15 41 -42 109
-60 150 -17 41 -35 84 -39 95 -5 11 -31 74 -59 140 -27 66 -60 146 -73 177
-12 32 -25 55 -28 52 -3 -3 -8 -173 -11 -377 l-5 -371 -30 -8 c-16 -4 -43 -4
-60 0 l-30 8 -3 489 c-2 384 0 490 10 497 7 4 48 8 90 8 67 0 80 -3 98 -22z
m2364 6 c14 -14 16 -72 16 -492 0 -444 -1 -478 -17 -488 -24 -15 -332 -17
-408 -3 -166 31 -267 161 -267 342 0 145 74 257 206 316 73 32 197 30 257 -4
62 -35 91 -47 98 -39 3 3 7 85 9 182 2 104 8 182 14 189 15 18 73 16 92 -3z
m1381 -24 c14 -22 25 -44 25 -50 0 -6 9 -32 21 -58 11 -26 24 -56 29 -67 20
-47 41 -96 80 -190 23 -55 47 -113 55 -130 7 -16 22 -50 32 -75 10 -25 26 -56
35 -69 17 -24 18 -24 38 -6 11 10 20 22 20 28 0 5 29 75 64 156 35 80 74 171
86 201 25 61 67 161 99 233 23 53 48 68 114 66 70 -2 91 -12 104 -49 8 -25 12
-159 12 -466 1 -422 1 -432 -20 -458 -22 -28 -73 -35 -110 -16 -18 10 -19 25
-19 350 0 196 -4 341 -9 345 -13 7 -43 -39 -68 -105 -42 -112 -125 -317 -149
-368 -13 -29 -24 -56 -24 -61 0 -19 -53 -128 -73 -148 -11 -13 -32 -23 -46
-23 -24 0 -71 34 -71 52 0 9 -42 105 -61 140 -5 10 -9 24 -9 32 0 8 -13 40
-29 72 -16 33 -32 70 -35 84 -7 25 -28 73 -53 122 -7 14 -13 31 -13 38 0 25
-80 193 -88 185 -4 -4 -9 -165 -12 -358 l-5 -351 -26 -15 c-22 -12 -31 -12
-70 0 l-44 14 1 479 c0 556 -11 506 116 506 l78 0 25 -40z m2255 23 c3 -3 7
-66 8 -141 2 -75 9 -143 14 -149 7 -9 48 -13 140 -13 117 0 133 -2 178 -25 32
-16 60 -41 82 -72 l33 -48 3 -257 c3 -252 3 -257 -18 -268 -12 -6 -35 -10 -53
-8 -52 5 -57 27 -57 253 0 196 -1 201 -24 236 -74 109 -227 77 -279 -59 -13
-33 -17 -78 -17 -210 0 -194 -6 -215 -61 -220 -72 -6 -69 -25 -69 492 0 477 1
485 40 499 15 6 71 -1 80 -10z m-3342 -95 c16 -16 16 -90 0 -106 -13 -13 -75
-16 -102 -6 -24 9 -31 69 -12 99 13 20 25 25 59 25 24 0 48 -5 55 -12z m2897
-52 c13 -9 21 -32 26 -76 4 -34 12 -67 19 -74 6 -6 41 -13 77 -16 65 -5 67 -6
75 -37 5 -18 4 -42 -2 -57 -9 -24 -14 -26 -74 -26 -92 0 -96 -7 -96 -185 1
-216 17 -254 111 -255 52 0 72 -15 72 -57 0 -49 -36 -65 -130 -61 -87 3 -116
16 -156 70 -18 24 -19 43 -18 235 1 197 -1 211 -20 231 -14 15 -32 22 -59 22
-46 0 -70 20 -70 59 0 37 25 57 79 64 55 7 61 14 65 68 2 24 4 53 4 65 3 36
63 55 97 30z m-4141 -173 c67 -24 146 -102 169 -168 18 -54 23 -180 7 -205 -8
-12 -45 -15 -237 -13 -259 1 -276 -3 -249 -54 20 -39 89 -101 123 -110 16 -4
54 -8 85 -8 51 1 64 5 116 42 l59 42 29 -18 c68 -41 68 -71 -1 -120 -114 -82
-285 -92 -404 -24 -151 87 -209 300 -127 469 28 58 108 135 170 163 56 26 192
28 260 4z m1240 -5 c14 -19 16 -68 16 -330 0 -306 0 -307 -22 -322 -28 -20
-67 -20 -92 -1 -17 13 -19 35 -22 315 -2 205 0 308 8 325 8 17 20 25 47 28 20
2 39 4 43 5 4 1 14 -8 22 -20z m585 0 c51 -25 69 -40 95 -81 39 -62 46 -114
46 -339 0 -215 0 -217 -22 -230 -31 -17 -266 -23 -369 -9 -134 18 -181 61
-187 173 -3 53 0 76 17 110 21 45 84 95 131 104 14 2 43 9 65 15 22 6 80 15
129 20 49 5 92 11 94 14 13 13 -33 98 -62 116 -55 33 -167 22 -225 -23 -13
-10 -31 -18 -40 -18 -24 0 -74 54 -69 76 2 11 33 33 78 56 72 36 79 38 174 38
83 0 108 -4 145 -22z m1857 -6 c54 -27 100 -81 116 -134 8 -29 13 -115 13
-266 0 -210 -1 -224 -19 -238 -16 -11 -61 -14 -204 -14 -210 0 -248 8 -303 60
-29 28 -38 45 -44 86 -7 58 7 125 36 165 37 52 192 109 297 109 83 0 92 5 92
50 0 93 -138 130 -263 69 -51 -25 -90 -21 -107 12 -9 16 -8 26 4 44 18 28 39
40 111 67 70 26 212 21 271 -10z"/>
<path d="M2845 2491 c-131 -34 -191 -149 -154 -298 39 -152 242 -193 355 -71
46 49 82 185 55 203 -5 3 -12 19 -16 35 -19 89 -143 156 -240 131z"/>
<path d="M2065 2501 c-22 -10 -54 -34 -71 -53 -34 -38 -60 -95 -50 -106 11
-10 349 -14 364 -4 21 14 4 76 -32 116 -21 24 -48 40 -85 51 -67 18 -76 18
-126 -4z"/>
<path d="M3893 2238 c-81 -25 -113 -55 -113 -105 0 -82 85 -120 195 -89 62 19
83 43 110 128 14 47 15 61 5 73 -18 21 -119 18 -197 -7z"/>
<path d="M5753 2242 c-103 -28 -139 -77 -111 -150 11 -29 22 -40 53 -50 76
-26 182 4 219 61 26 38 36 113 19 137 -18 25 -89 26 -180 2z"/>
</g>
</svg>
